<svg xmlns="http://www.w3.org/2000/svg" xmlns:xlink="http://www.w3.org/1999/xlink" width="500" zoomAndPan="magnify" viewBox="0 0 375 374.999991" height="500" preserveAspectRatio="xMidYMid meet" version="1.0"><defs><g/></defs><path stroke-linecap="butt" transform="matrix(0.706214, 0, 0, 0.706214, 14.787438, 125.313186)" fill="none" stroke-linejoin="miter" d="M 16.706699 14.706644 C 19.38936 14.706644 21.718019 15.154676 23.687147 16.050739 C 25.667338 16.941272 27.188434 18.213461 28.255966 19.861776 C 29.323499 21.50456 29.860031 23.446031 29.860031 25.697253 C 29.860031 27.920819 29.323499 29.867822 28.255966 31.527199 C 27.188434 33.181046 25.667338 34.453235 23.687147 35.332705 C 21.718019 36.206644 19.38936 36.643613 16.706699 36.643613 L 10.611253 36.643613 L 10.611253 45.001344 L 3.592087 45.001344 L 3.592087 14.706644 Z M 16.31398 30.935355 C 18.421389 30.935355 20.019923 30.481792 21.109581 29.574665 C 22.210301 28.662008 22.757896 27.373225 22.757896 25.697253 C 22.757896 23.999157 22.210301 22.69378 21.109581 21.786654 C 20.019923 20.868465 18.421389 20.409371 16.31398 20.409371 L 10.611253 20.409371 L 10.611253 30.935355 Z M 55.209787 38.513178 L 41.149329 38.513178 L 38.466669 45.001344 L 31.281564 45.001344 L 44.783365 14.706644 L 51.702969 14.706644 L 65.24902 45.001344 L 57.897978 45.001344 Z M 53.002815 33.186577 L 48.207214 21.587529 L 43.400551 33.186577 Z M 81.51645 14.706644 C 84.199111 14.706644 86.52777 15.154676 88.502429 16.050739 C 90.48262 16.941272 92.003716 18.213461 93.065717 19.861776 C 94.138781 21.50456 94.669782 23.446031 94.669782 25.697253 C 94.669782 27.920819 94.138781 29.867822 93.065717 31.527199 C 92.003716 33.181046 90.48262 34.453235 88.502429 35.332705 C 86.52777 36.206644 84.199111 36.643613 81.51645 36.643613 L 75.421004 36.643613 L 75.421004 45.001344 L 68.401837 45.001344 L 68.401837 14.706644 Z M 81.123731 30.935355 C 83.23114 30.935355 84.829674 30.481792 85.924863 29.574665 C 87.020052 28.662008 87.573178 27.373225 87.573178 25.697253 C 87.573178 23.999157 87.020052 22.69378 85.924863 21.786654 C 84.829674 20.868465 83.23114 20.409371 81.123731 20.409371 L 75.421004 20.409371 L 75.421004 30.935355 Z M 120.025069 38.513178 L 105.95908 38.513178 L 103.27642 45.001344 L 96.091315 45.001344 L 109.593116 14.706644 L 116.518252 14.706644 L 130.064303 45.001344 L 122.707729 45.001344 Z M 117.818097 33.186577 L 113.016965 21.587529 L 108.210302 33.186577 Z M 139.495098 20.409371 L 129.793271 20.409371 L 129.793271 14.706644 L 156.199497 14.706644 L 156.199497 20.409371 L 146.49767 20.409371 L 146.49767 45.001344 L 139.495098 45.001344 Z M 174.491367 34.265172 L 174.491367 45.001344 L 167.488795 45.001344 L 167.488795 34.182203 L 155.756996 14.706644 L 163.196538 14.706644 L 171.2943 28.169726 L 179.386531 14.706644 L 186.267416 14.706644 Z M 209.150231 38.513178 L 195.089773 38.513178 L 192.401581 45.001344 L 185.216477 45.001344 L 198.723809 14.706644 L 205.643413 14.706644 L 219.189464 45.001344 L 211.832891 45.001344 Z M 206.943259 33.186577 L 202.147658 21.587529 L 197.335463 33.186577 Z M 206.943259 33.186577 " stroke="#000000" stroke-width="7.737909" stroke-opacity="1" stroke-miterlimit="4"/><g fill="#ffde59" fill-opacity="1"><g transform="translate(14.787438, 157.092801)"><g><path d="M 11.796875 -21.390625 C 13.691406 -21.390625 15.335938 -21.070312 16.734375 -20.4375 C 18.128906 -19.8125 19.203125 -18.914062 19.953125 -17.75 C 20.710938 -16.59375 21.09375 -15.21875 21.09375 -13.625 C 21.09375 -12.0625 20.710938 -10.691406 19.953125 -9.515625 C 19.203125 -8.347656 18.128906 -7.453125 16.734375 -6.828125 C 15.335938 -6.210938 13.691406 -5.90625 11.796875 -5.90625 L 7.484375 -5.90625 L 7.484375 0 L 2.53125 0 L 2.53125 -21.390625 Z M 11.515625 -9.9375 C 13.003906 -9.9375 14.132812 -10.253906 14.90625 -10.890625 C 15.6875 -11.535156 16.078125 -12.445312 16.078125 -13.625 C 16.078125 -14.832031 15.6875 -15.753906 14.90625 -16.390625 C 14.132812 -17.035156 13.003906 -17.359375 11.515625 -17.359375 L 7.484375 -17.359375 L 7.484375 -9.9375 Z M 11.515625 -9.9375 "/></g></g></g><g fill="#ffde59" fill-opacity="1"><g transform="translate(37.153514, 157.092801)"><g><path d="M 16.625 -4.578125 L 6.6875 -4.578125 L 4.796875 0 L -0.28125 0 L 9.265625 -21.390625 L 14.15625 -21.390625 L 23.71875 0 L 18.515625 0 Z M 15.0625 -8.34375 L 11.671875 -16.53125 L 8.28125 -8.34375 Z M 15.0625 -8.34375 "/></g></g></g><g fill="#ffde59" fill-opacity="1"><g transform="translate(60.558448, 157.092801)"><g><path d="M 11.796875 -21.390625 C 13.691406 -21.390625 15.335938 -21.070312 16.734375 -20.4375 C 18.128906 -19.8125 19.203125 -18.914062 19.953125 -17.75 C 20.710938 -16.59375 21.09375 -15.21875 21.09375 -13.625 C 21.09375 -12.0625 20.710938 -10.691406 19.953125 -9.515625 C 19.203125 -8.347656 18.128906 -7.453125 16.734375 -6.828125 C 15.335938 -6.210938 13.691406 -5.90625 11.796875 -5.90625 L 7.484375 -5.90625 L 7.484375 0 L 2.53125 0 L 2.53125 -21.390625 Z M 11.515625 -9.9375 C 13.003906 -9.9375 14.132812 -10.253906 14.90625 -10.890625 C 15.6875 -11.535156 16.078125 -12.445312 16.078125 -13.625 C 16.078125 -14.832031 15.6875 -15.753906 14.90625 -16.390625 C 14.132812 -17.035156 13.003906 -17.359375 11.515625 -17.359375 L 7.484375 -17.359375 L 7.484375 -9.9375 Z M 11.515625 -9.9375 "/></g></g></g><g fill="#ffde59" fill-opacity="1"><g transform="translate(82.924524, 157.092801)"><g><path d="M 16.625 -4.578125 L 6.6875 -4.578125 L 4.796875 0 L -0.28125 0 L 9.265625 -21.390625 L 14.15625 -21.390625 L 23.71875 0 L 18.515625 0 Z M 15.0625 -8.34375 L 11.671875 -16.53125 L 8.28125 -8.34375 Z M 15.0625 -8.34375 "/></g></g></g><g fill="#ffde59" fill-opacity="1"><g transform="translate(106.329457, 157.092801)"><g><path d="M 6.96875 -17.359375 L 0.125 -17.359375 L 0.125 -21.390625 L 18.765625 -21.390625 L 18.765625 -17.359375 L 11.921875 -17.359375 L 11.921875 0 L 6.96875 0 Z M 6.96875 -17.359375 "/></g></g></g><g fill="#ffde59" fill-opacity="1"><g transform="translate(125.212289, 157.092801)"><g><path d="M 12.8125 -7.578125 L 12.8125 0 L 7.859375 0 L 7.859375 -7.640625 L -0.421875 -21.390625 L 4.828125 -21.390625 L 10.546875 -11.890625 L 16.265625 -21.390625 L 21.125 -21.390625 Z M 12.8125 -7.578125 "/></g></g></g><g fill="#ffde59" fill-opacity="1"><g transform="translate(145.867293, 157.092801)"><g><path d="M 16.625 -4.578125 L 6.6875 -4.578125 L 4.796875 0 L -0.28125 0 L 9.265625 -21.390625 L 14.15625 -21.390625 L 23.71875 0 L 18.515625 0 Z M 15.0625 -8.34375 L 11.671875 -16.53125 L 8.28125 -8.34375 Z M 15.0625 -8.34375 "/></g></g></g><g fill="#ffde59" fill-opacity="1"><g transform="translate(169.282714, 157.092801)"><g/></g></g><path stroke-linecap="butt" transform="matrix(1.229992, 0, 0, 1.229992, 11.109672, 148.989161)" fill="none" stroke-linejoin="miter" d="M 30.611608 35.333597 C 32.663195 35.984642 34.270167 37.070777 35.429345 38.588825 C 36.598052 40.106873 37.182405 41.980614 37.182405 44.210048 C 37.182405 47.347771 35.959709 49.764579 33.514318 51.457298 C 31.068927 53.153192 27.505643 54.00114 22.824466 54.00114 L 4.255374 54.00114 L 4.255374 18.107882 L 21.795497 18.107882 C 26.168618 18.107882 29.525473 18.946301 31.862886 20.623141 C 34.20665 22.293629 35.381708 24.561173 35.381708 27.432126 C 35.381708 29.178833 34.962498 30.734991 34.127254 32.103775 C 33.295186 33.472559 32.120128 34.549166 30.611608 35.333597 Z M 12.506187 24.367447 L 12.506187 32.818337 L 20.769703 32.818337 C 22.824466 32.818337 24.380624 32.459468 25.438177 31.74173 C 26.498905 31.023992 27.029269 29.963264 27.029269 28.559546 C 27.029269 27.159004 26.498905 26.110979 25.438177 25.418648 C 24.380624 24.716789 22.824466 24.367447 20.769703 24.367447 Z M 22.208355 47.741574 C 24.396503 47.741574 26.044761 47.382705 27.156302 46.664967 C 28.264667 45.947229 28.820438 44.835687 28.820438 43.333519 C 28.820438 40.360939 26.61641 38.877826 22.208355 38.877826 L 12.506187 38.877826 L 12.506187 47.741574 Z M 22.208355 47.741574 " stroke="#000000" stroke-width="3.846203" stroke-opacity="1" stroke-miterlimit="4"/><path stroke-linecap="butt" transform="matrix(1.229992, 0, 0, 1.229992, 11.109672, 148.989161)" fill="none" stroke-linejoin="miter" d="M 98.707806 24.866053 L 87.214469 24.866053 L 87.214469 18.107882 L 118.50277 18.107882 L 118.50277 24.866053 L 107.009432 24.866053 L 107.009432 54.00114 L 98.707806 54.00114 Z M 152.849398 46.312449 L 136.185805 46.312449 L 133.003621 54.00114 L 124.49239 54.00114 L 140.492234 18.107882 L 148.692233 18.107882 L 164.74289 54.00114 L 156.028406 54.00114 Z M 150.232512 40.00207 L 144.547772 26.257068 L 138.850328 40.00207 Z M 207.664265 18.107882 L 207.664265 54.00114 L 200.839401 54.00114 L 182.937234 32.202226 L 182.937234 54.00114 L 174.737235 54.00114 L 174.737235 18.107882 L 181.609736 18.107882 L 199.451563 39.90362 L 199.451563 18.107882 Z M 222.416007 18.107882 L 230.730336 18.107882 L 230.730336 54.00114 L 222.416007 54.00114 Z M 226.573172 14.925697 C 225.312366 14.925697 224.277045 14.516015 223.467207 13.699826 C 222.666898 12.87411 222.266743 11.829261 222.266743 10.568455 C 222.266743 9.333057 222.666898 8.307263 223.467207 7.491074 C 224.277045 6.671709 225.312366 6.262027 226.573172 6.262027 C 227.840329 6.262027 228.87565 6.671709 229.67596 7.491074 C 230.479445 8.307263 230.8796 9.333057 230.8796 10.568455 C 230.8796 11.829261 230.479445 12.87411 229.67596 13.699826 C 228.87565 14.516015 227.840329 14.925697 226.573172 14.925697 Z M 258.55698 39.90362 L 253.739242 44.924611 L 253.739242 54.00114 L 245.48843 54.00114 L 245.48843 18.107882 L 253.739242 18.107882 L 253.739242 34.869925 L 269.637459 18.107882 L 278.866428 18.107882 L 264.003533 34.107725 L 279.739782 54.00114 L 270.050318 54.00114 Z M 258.55698 39.90362 " stroke="#000000" stroke-width="3.846203" stroke-opacity="1" stroke-miterlimit="4"/><g fill="#00bf63" fill-opacity="1"><g transform="translate(11.109672, 215.408754)"><g><path d="M 37.65625 -22.953125 C 40.175781 -22.160156 42.148438 -20.828125 43.578125 -18.953125 C 45.015625 -17.078125 45.734375 -14.773438 45.734375 -12.046875 C 45.734375 -8.179688 44.226562 -5.207031 41.21875 -3.125 C 38.21875 -1.039062 33.832031 0 28.0625 0 L 5.234375 0 L 5.234375 -44.15625 L 26.8125 -44.15625 C 32.1875 -44.15625 36.316406 -43.125 39.203125 -41.0625 C 42.085938 -39 43.53125 -36.203125 43.53125 -32.671875 C 43.53125 -30.523438 43.015625 -28.609375 41.984375 -26.921875 C 40.953125 -25.242188 39.507812 -23.921875 37.65625 -22.953125 Z M 15.390625 -36.453125 L 15.390625 -26.046875 L 25.546875 -26.046875 C 28.066406 -26.046875 29.976562 -26.488281 31.28125 -27.375 C 32.59375 -28.257812 33.25 -29.5625 33.25 -31.28125 C 33.25 -33.007812 32.59375 -34.300781 31.28125 -35.15625 C 29.976562 -36.019531 28.066406 -36.453125 25.546875 -36.453125 Z M 27.3125 -7.703125 C 30 -7.703125 32.023438 -8.140625 33.390625 -9.015625 C 34.765625 -9.898438 35.453125 -11.269531 35.453125 -13.125 C 35.453125 -16.78125 32.738281 -18.609375 27.3125 -18.609375 L 15.390625 -18.609375 L 15.390625 -7.703125 Z M 27.3125 -7.703125 "/></g></g></g><g fill="#00bf63" fill-opacity="1"><g transform="translate(67.055111, 215.408754)"><g/></g></g><g fill="#00bf63" fill-opacity="1"><g transform="translate(92.595515, 215.408754)"><g/></g></g><g fill="#00bf63" fill-opacity="1"><g transform="translate(118.138236, 215.408754)"><g><path d="M 14.375 -35.828125 L 0.25 -35.828125 L 0.25 -44.15625 L 38.734375 -44.15625 L 38.734375 -35.828125 L 24.59375 -35.828125 L 24.59375 0 L 14.375 0 Z M 14.375 -35.828125 "/></g></g></g><g fill="#00bf63" fill-opacity="1"><g transform="translate(164.802563, 215.408754)"><g><path d="M 34.3125 -9.46875 L 13.8125 -9.46875 L 9.90625 0 L -0.5625 0 L 19.109375 -44.15625 L 29.203125 -44.15625 L 48.953125 0 L 38.21875 0 Z M 31.09375 -17.21875 L 24.09375 -34.125 L 17.09375 -17.21875 Z M 31.09375 -17.21875 "/></g></g></g><g fill="#00bf63" fill-opacity="1"><g transform="translate(220.799243, 215.408754)"><g><path d="M 45.734375 -44.15625 L 45.734375 0 L 37.34375 0 L 15.328125 -26.8125 L 15.328125 0 L 5.234375 0 L 5.234375 -44.15625 L 13.6875 -44.15625 L 35.640625 -17.34375 L 35.640625 -44.15625 Z M 45.734375 -44.15625 "/></g></g></g><g fill="#00bf63" fill-opacity="1"><g transform="translate(279.444291, 215.408754)"><g><path d="M 5.234375 -44.15625 L 15.453125 -44.15625 L 15.453125 0 L 5.234375 0 Z M 10.34375 -48.0625 C 8.789062 -48.0625 7.519531 -48.566406 6.53125 -49.578125 C 5.539062 -50.585938 5.046875 -51.867188 5.046875 -53.421875 C 5.046875 -54.941406 5.539062 -56.203125 6.53125 -57.203125 C 7.519531 -58.210938 8.789062 -58.71875 10.34375 -58.71875 C 11.894531 -58.71875 13.164062 -58.210938 14.15625 -57.203125 C 15.144531 -56.203125 15.640625 -54.941406 15.640625 -53.421875 C 15.640625 -51.867188 15.144531 -50.585938 14.15625 -49.578125 C 13.164062 -48.566406 11.894531 -48.0625 10.34375 -48.0625 Z M 10.34375 -48.0625 "/></g></g></g><g fill="#00bf63" fill-opacity="1"><g transform="translate(307.822235, 215.408754)"><g><path d="M 21.328125 -17.34375 L 15.390625 -11.171875 L 15.390625 0 L 5.234375 0 L 5.234375 -44.15625 L 15.390625 -44.15625 L 15.390625 -23.53125 L 34.9375 -44.15625 L 46.296875 -44.15625 L 28 -24.46875 L 47.375 0 L 35.453125 0 Z M 21.328125 -17.34375 "/></g></g></g><path fill="#000000" d="M 89.355469 189.109375 C 90.28125 189.867188 88.933594 187.613281 88.773438 187.226562 C 87.972656 185.285156 87.589844 183.234375 87.171875 181.121094 C 86.398438 177.230469 83.21875 160.089844 92.722656 158.820312 C 102.816406 157.472656 94.96875 176.886719 93.507812 181.433594 C 92.886719 183.363281 92.023438 186.351562 90.761719 188.199219 C 90.273438 188.910156 88.953125 190.960938 89.695312 190.449219 " fill-opacity="1" fill-rule="evenodd"/><path fill="#000000" d="M 89.59375 189.167969 C 89.582031 189.164062 89.570312 189.160156 89.5625 189.152344 C 89.519531 189.128906 89.472656 189.09375 89.410156 189.046875 C 89.375 189.015625 89.320312 189.019531 89.292969 189.058594 C 89.261719 189.09375 89.265625 189.144531 89.304688 189.175781 C 89.4375 189.285156 89.53125 189.335938 89.589844 189.347656 C 89.640625 189.355469 89.679688 189.34375 89.707031 189.320312 C 89.730469 189.300781 89.75 189.273438 89.757812 189.230469 C 89.765625 189.199219 89.765625 189.152344 89.75 189.09375 C 89.660156 188.664062 88.964844 187.464844 88.851562 187.195312 C 88.054688 185.257812 87.671875 183.214844 87.253906 181.105469 C 86.792969 178.777344 85.464844 171.6875 86.523438 166.113281 C 87.226562 162.429688 88.972656 159.40625 92.730469 158.90625 C 94.316406 158.695312 95.453125 159 96.230469 159.6875 C 97.410156 160.726562 97.78125 162.621094 97.695312 164.886719 C 97.476562 170.617188 94.300781 178.683594 93.425781 181.40625 C 92.808594 183.332031 91.949219 186.308594 90.691406 188.152344 C 90.347656 188.65625 89.59375 189.820312 89.425781 190.296875 C 89.394531 190.382812 89.386719 190.453125 89.390625 190.496094 C 89.394531 190.535156 89.414062 190.5625 89.433594 190.582031 C 89.457031 190.601562 89.488281 190.617188 89.53125 190.613281 C 89.574219 190.613281 89.644531 190.585938 89.742188 190.519531 C 89.78125 190.492188 89.789062 190.4375 89.761719 190.402344 C 89.738281 190.363281 89.683594 190.351562 89.644531 190.378906 C 89.617188 190.398438 89.589844 190.414062 89.566406 190.425781 C 89.566406 190.414062 89.570312 190.398438 89.574219 190.386719 C 89.597656 190.316406 89.636719 190.226562 89.6875 190.121094 C 89.953125 189.574219 90.539062 188.671875 90.832031 188.25 C 92.097656 186.394531 92.964844 183.398438 93.589844 181.457031 C 94.464844 178.726562 97.644531 170.636719 97.863281 164.894531 C 97.953125 162.566406 97.554688 160.625 96.34375 159.558594 C 95.53125 158.84375 94.355469 158.519531 92.710938 158.738281 C 88.871094 159.25 87.074219 162.320312 86.359375 166.082031 C 85.292969 171.679688 86.625 178.796875 87.089844 181.136719 C 87.507812 183.257812 87.890625 185.3125 88.695312 187.257812 C 88.792969 187.492188 89.316406 188.394531 89.519531 188.917969 C 89.554688 189.011719 89.582031 189.097656 89.589844 189.15625 C 89.59375 189.160156 89.59375 189.164062 89.59375 189.167969 Z M 89.59375 189.167969 " fill-opacity="1" fill-rule="evenodd"/><path fill="#000000" d="M 88.324219 191.90625 C 89.140625 191.0625 86.820312 192.179688 86.425781 192.300781 C 84.453125 192.90625 82.40625 193.082031 80.292969 193.292969 C 76.40625 193.675781 59.285156 195.144531 58.773438 185.570312 C 58.226562 175.398438 76.730469 185.121094 81.089844 187.019531 C 82.941406 187.828125 85.816406 188.984375 87.539062 190.421875 C 88.199219 190.972656 90.113281 192.488281 89.667969 191.703125 " fill-opacity="1" fill-rule="evenodd"/><path fill="#000000" d="M 88.398438 191.675781 C 88.394531 191.6875 88.390625 191.699219 88.382812 191.707031 C 88.355469 191.746094 88.316406 191.792969 88.265625 191.847656 C 88.230469 191.878906 88.234375 191.933594 88.265625 191.964844 C 88.300781 192 88.351562 192 88.386719 191.964844 C 88.503906 191.84375 88.5625 191.753906 88.574219 191.695312 C 88.589844 191.644531 88.582031 191.605469 88.5625 191.578125 C 88.542969 191.550781 88.519531 191.53125 88.476562 191.519531 C 88.445312 191.507812 88.398438 191.503906 88.339844 191.511719 C 87.910156 191.558594 86.679688 192.132812 86.402344 192.21875 C 84.433594 192.824219 82.390625 193 80.285156 193.207031 C 77.957031 193.4375 70.875 194.058594 65.472656 192.453125 C 61.902344 191.390625 59.058594 189.355469 58.855469 185.566406 C 58.773438 183.96875 59.160156 182.871094 59.898438 182.164062 C 61.007812 181.09375 62.902344 180.914062 65.125 181.222656 C 70.746094 182.007812 78.441406 185.957031 81.054688 187.097656 C 82.902344 187.902344 85.765625 189.050781 87.484375 190.484375 C 87.953125 190.875 89.039062 191.742188 89.496094 191.953125 C 89.578125 191.992188 89.644531 192.011719 89.691406 192.007812 C 89.730469 192.007812 89.757812 191.992188 89.78125 191.972656 C 89.800781 191.953125 89.820312 191.921875 89.820312 191.878906 C 89.820312 191.835938 89.800781 191.765625 89.742188 191.660156 C 89.71875 191.621094 89.667969 191.605469 89.625 191.628906 C 89.585938 191.652344 89.570312 191.703125 89.59375 191.746094 C 89.609375 191.773438 89.625 191.804688 89.632812 191.828125 C 89.621094 191.824219 89.609375 191.820312 89.601562 191.816406 C 89.53125 191.785156 89.445312 191.738281 89.347656 191.679688 C 88.832031 191.359375 87.988281 190.683594 87.59375 190.355469 C 85.863281 188.914062 82.984375 187.753906 81.121094 186.941406 C 78.503906 185.800781 70.785156 181.839844 65.148438 181.054688 C 62.867188 180.734375 60.921875 180.941406 59.78125 182.039062 C 59.011719 182.777344 58.597656 183.914062 58.6875 185.574219 C 58.894531 189.441406 61.78125 191.53125 65.425781 192.613281 C 70.851562 194.226562 77.960938 193.605469 80.300781 193.375 C 82.421875 193.167969 84.472656 192.988281 86.449219 192.378906 C 86.6875 192.308594 87.617188 191.878906 88.144531 191.726562 C 88.242188 191.699219 88.328125 191.679688 88.386719 191.675781 C 88.390625 191.675781 88.394531 191.675781 88.398438 191.675781 Z M 88.398438 191.675781 " fill-opacity="1" fill-rule="evenodd"/><path fill="#000000" d="M 92.867188 191.234375 C 92.226562 192.175781 94.246094 190.6875 94.597656 190.5 C 96.359375 189.554688 98.261719 188.988281 100.21875 188.382812 C 103.816406 187.265625 119.703125 182.558594 121.632812 191.308594 C 123.679688 200.609375 104.804688 195.238281 100.414062 194.335938 C 98.550781 193.953125 95.671875 193.445312 93.835938 192.453125 C 93.128906 192.074219 91.097656 191.046875 91.636719 191.683594 " fill-opacity="1" fill-rule="evenodd"/><path fill="#000000" d="M 92.839844 191.453125 C 92.855469 191.410156 92.886719 191.355469 92.9375 191.28125 C 92.964844 191.242188 92.957031 191.191406 92.917969 191.164062 C 92.878906 191.136719 92.824219 191.148438 92.800781 191.1875 C 92.707031 191.324219 92.667969 191.417969 92.660156 191.472656 C 92.65625 191.523438 92.671875 191.5625 92.695312 191.585938 C 92.714844 191.609375 92.746094 191.625 92.789062 191.628906 C 92.820312 191.628906 92.863281 191.625 92.917969 191.605469 C 93.316406 191.480469 94.386719 190.707031 94.636719 190.574219 C 96.394531 189.628906 98.289062 189.066406 100.242188 188.464844 C 102.398438 187.796875 108.964844 185.835938 114.289062 186.261719 C 117.808594 186.542969 120.785156 187.867188 121.550781 191.328125 C 121.871094 192.785156 121.671875 193.875 121.085938 194.675781 C 120.199219 195.882812 118.445312 196.417969 116.308594 196.566406 C 110.898438 196.941406 103.0625 194.792969 100.433594 194.253906 C 98.574219 193.871094 95.707031 193.367188 93.875 192.378906 C 93.375 192.109375 92.21875 191.523438 91.757812 191.414062 C 91.671875 191.394531 91.605469 191.390625 91.5625 191.402344 C 91.527344 191.410156 91.503906 191.429688 91.484375 191.449219 C 91.464844 191.480469 91.453125 191.519531 91.46875 191.574219 C 91.480469 191.613281 91.511719 191.667969 91.570312 191.738281 C 91.601562 191.773438 91.65625 191.78125 91.691406 191.75 C 91.726562 191.71875 91.730469 191.664062 91.699219 191.628906 C 91.683594 191.609375 91.667969 191.585938 91.65625 191.566406 C 91.664062 191.570312 91.675781 191.570312 91.6875 191.574219 C 91.753906 191.585938 91.84375 191.613281 91.945312 191.648438 C 92.476562 191.84375 93.371094 192.300781 93.792969 192.527344 C 95.636719 193.523438 98.523438 194.035156 100.398438 194.417969 C 103.035156 194.960938 110.894531 197.113281 116.320312 196.738281 C 118.515625 196.585938 120.3125 196.015625 121.222656 194.777344 C 121.832031 193.945312 122.046875 192.808594 121.714844 191.292969 C 120.933594 187.753906 117.902344 186.382812 114.304688 186.09375 C 108.953125 185.664062 102.355469 187.632812 100.191406 188.300781 C 98.230469 188.910156 96.324219 189.476562 94.558594 190.425781 C 94.347656 190.539062 93.535156 191.117188 93.058594 191.359375 C 92.976562 191.402344 92.90625 191.433594 92.851562 191.449219 C 92.847656 191.453125 92.84375 191.453125 92.839844 191.453125 Z M 92.839844 191.453125 " fill-opacity="1" fill-rule="evenodd"/><path fill="#000000" d="M 88.539062 192.613281 C 89.777344 192.621094 87.253906 191.640625 86.878906 191.421875 C 85.003906 190.332031 83.40625 188.863281 81.734375 187.363281 C 78.664062 184.605469 65.316406 172.296875 72.371094 164.699219 C 79.863281 156.625 85.527344 178.429688 87.164062 183.273438 C 87.863281 185.332031 89.015625 188.449219 89.128906 190.882812 C 89.171875 191.816406 89.363281 194.457031 89.65625 193.515625 " fill-opacity="1" fill-rule="evenodd"/><path fill="#000000" d="M 88.78125 192.507812 C 88.773438 192.507812 88.761719 192.511719 88.75 192.515625 C 88.699219 192.527344 88.632812 192.53125 88.539062 192.53125 C 88.492188 192.53125 88.457031 192.566406 88.457031 192.613281 C 88.453125 192.660156 88.492188 192.699219 88.539062 192.699219 C 88.707031 192.699219 88.8125 192.679688 88.871094 192.652344 C 88.9375 192.621094 88.960938 192.574219 88.960938 192.523438 C 88.964844 192.476562 88.933594 192.40625 88.851562 192.335938 C 88.507812 192.035156 87.1875 191.503906 86.921875 191.351562 C 85.050781 190.261719 83.457031 188.796875 81.792969 187.300781 C 79.953125 185.648438 74.421875 180.566406 71.8125 175.128906 C 70.082031 171.527344 69.636719 167.769531 72.433594 164.757812 C 73.609375 163.488281 74.738281 162.964844 75.8125 163.011719 C 77.4375 163.078125 78.929688 164.425781 80.273438 166.402344 C 83.675781 171.394531 86.101562 180.398438 87.085938 183.300781 C 87.777344 185.355469 88.929688 188.460938 89.042969 190.886719 C 89.074219 191.546875 89.179688 193.046875 89.339844 193.5625 C 89.371094 193.65625 89.40625 193.722656 89.4375 193.753906 C 89.464844 193.785156 89.496094 193.796875 89.527344 193.800781 C 89.558594 193.800781 89.589844 193.792969 89.625 193.761719 C 89.660156 193.730469 89.699219 193.660156 89.734375 193.539062 C 89.75 193.496094 89.726562 193.449219 89.679688 193.433594 C 89.636719 193.421875 89.589844 193.445312 89.574219 193.492188 C 89.5625 193.527344 89.546875 193.566406 89.535156 193.59375 C 89.527344 193.578125 89.519531 193.566406 89.515625 193.550781 C 89.488281 193.476562 89.464844 193.371094 89.441406 193.25 C 89.320312 192.605469 89.238281 191.4375 89.214844 190.878906 C 89.097656 188.441406 87.945312 185.3125 87.246094 183.246094 C 86.261719 180.335938 83.824219 171.3125 80.414062 166.304688 C 79.03125 164.277344 77.488281 162.910156 75.820312 162.839844 C 74.703125 162.792969 73.527344 163.328125 72.308594 164.640625 C 69.460938 167.707031 69.898438 171.535156 71.660156 175.203125 C 74.28125 180.664062 79.832031 185.769531 81.679688 187.425781 C 83.351562 188.929688 84.957031 190.402344 86.835938 191.496094 C 87.0625 191.625 88.058594 192.03125 88.554688 192.332031 C 88.644531 192.386719 88.71875 192.441406 88.765625 192.484375 C 88.769531 192.492188 88.777344 192.5 88.78125 192.507812 Z M 88.78125 192.507812 " fill-opacity="1" fill-rule="evenodd"/><path fill="#000000" d="M 91.308594 194.933594 C 90.230469 194.113281 92.082031 196.507812 92.332031 196.914062 C 93.578125 198.960938 94.449219 201.105469 95.367188 203.320312 C 97.058594 207.394531 104.304688 225.335938 95.421875 226.328125 C 85.980469 227.378906 88.855469 207.457031 89.160156 202.777344 C 89.289062 200.789062 89.402344 197.710938 90.171875 195.832031 C 90.46875 195.109375 91.25 193.023438 90.65625 193.53125 " fill-opacity="1" fill-rule="evenodd"/><path fill="#000000" d="M 90.785156 193.546875 C 90.785156 193.550781 90.785156 193.554688 90.789062 193.5625 C 90.789062 193.589844 90.789062 193.621094 90.785156 193.660156 C 90.742188 194.140625 90.300781 195.300781 90.09375 195.800781 C 89.320312 197.6875 89.207031 200.777344 89.074219 202.773438 C 88.890625 205.582031 87.785156 213.890625 88.96875 219.855469 C 89.765625 223.878906 91.605469 226.839844 95.429688 226.410156 C 99.03125 226.011719 100.035156 222.871094 99.8125 218.96875 C 99.480469 213.1875 96.460938 205.734375 95.445312 203.289062 C 94.523438 201.070312 93.652344 198.921875 92.402344 196.871094 C 92.253906 196.625 91.527344 195.667969 91.203125 195.117188 C 91.148438 195.019531 91.101562 194.9375 91.078125 194.878906 C 91.125 194.902344 91.183594 194.945312 91.257812 195 C 91.296875 195.03125 91.347656 195.023438 91.375 194.984375 C 91.40625 194.949219 91.398438 194.894531 91.359375 194.867188 C 91.210938 194.753906 91.109375 194.699219 91.050781 194.683594 C 90.992188 194.671875 90.949219 194.6875 90.925781 194.714844 C 90.90625 194.730469 90.894531 194.757812 90.890625 194.792969 C 90.886719 194.828125 90.898438 194.886719 90.929688 194.957031 C 91.121094 195.40625 92.085938 196.671875 92.257812 196.957031 C 93.503906 199 94.371094 201.144531 95.289062 203.351562 C 96.304688 205.792969 99.3125 213.214844 99.640625 218.980469 C 99.859375 222.773438 98.917969 225.851562 95.410156 226.242188 C 91.683594 226.660156 89.910156 223.746094 89.132812 219.824219 C 87.953125 213.871094 89.0625 205.585938 89.246094 202.785156 C 89.375 200.800781 89.484375 197.738281 90.25 195.863281 C 90.460938 195.351562 90.910156 194.164062 90.953125 193.675781 C 90.960938 193.601562 90.957031 193.539062 90.949219 193.496094 C 90.9375 193.453125 90.917969 193.417969 90.890625 193.398438 C 90.859375 193.371094 90.820312 193.359375 90.769531 193.371094 C 90.726562 193.378906 90.671875 193.40625 90.601562 193.464844 C 90.566406 193.496094 90.5625 193.550781 90.59375 193.585938 C 90.625 193.621094 90.679688 193.625 90.714844 193.59375 C 90.738281 193.574219 90.765625 193.554688 90.785156 193.546875 Z M 90.785156 193.546875 " fill-opacity="1" fill-rule="evenodd"/><path fill="#000000" d="M 89.671875 193.160156 C 89.914062 191.90625 88.503906 194.34375 88.226562 194.695312 C 86.839844 196.464844 85.144531 197.902344 83.40625 199.40625 C 80.214844 202.179688 66.035156 214.183594 60.230469 206.078125 C 54.066406 197.46875 75.714844 194.445312 80.597656 193.390625 C 82.675781 192.941406 85.835938 192.160156 88.152344 192.347656 C 89.039062 192.417969 91.566406 192.554688 90.734375 192.144531 " fill-opacity="1" fill-rule="evenodd"/><path fill="#000000" d="M 90.789062 192.277344 C 90.773438 192.28125 90.753906 192.285156 90.734375 192.289062 C 90.660156 192.308594 90.554688 192.320312 90.433594 192.328125 C 89.804688 192.371094 88.6875 192.304688 88.15625 192.261719 C 85.835938 192.074219 82.664062 192.855469 80.578125 193.308594 C 77.648438 193.941406 68.667969 195.285156 63.289062 198.121094 C 61.117188 199.269531 59.53125 200.660156 59.144531 202.339844 C 58.882812 203.46875 59.160156 204.726562 60.164062 206.128906 C 62.507812 209.402344 66.203125 209.4375 70.003906 208.109375 C 75.660156 206.132812 81.542969 201.136719 83.464844 199.472656 C 85.203125 197.960938 86.902344 196.519531 88.292969 194.75 C 88.460938 194.539062 89.035156 193.578125 89.414062 193.113281 C 89.480469 193.027344 89.542969 192.960938 89.59375 192.921875 C 89.601562 192.917969 89.605469 192.910156 89.613281 192.90625 C 89.613281 192.914062 89.613281 192.921875 89.613281 192.929688 C 89.617188 192.980469 89.605469 193.050781 89.589844 193.144531 C 89.578125 193.191406 89.609375 193.234375 89.65625 193.246094 C 89.703125 193.253906 89.746094 193.222656 89.753906 193.179688 C 89.789062 193 89.789062 192.886719 89.769531 192.828125 C 89.753906 192.773438 89.726562 192.746094 89.691406 192.730469 C 89.664062 192.71875 89.625 192.714844 89.585938 192.730469 C 89.550781 192.742188 89.507812 192.769531 89.464844 192.808594 C 89.113281 193.121094 88.355469 194.394531 88.160156 194.644531 C 86.773438 196.40625 85.082031 197.839844 83.351562 199.34375 C 81.441406 201.003906 75.582031 205.980469 69.949219 207.949219 C 66.226562 209.25 62.597656 209.238281 60.300781 206.03125 C 59.332031 204.675781 59.058594 203.464844 59.308594 202.378906 C 59.6875 200.738281 61.246094 199.390625 63.371094 198.269531 C 68.734375 195.441406 77.691406 194.105469 80.617188 193.472656 C 82.6875 193.023438 85.839844 192.246094 88.144531 192.429688 C 88.773438 192.480469 90.210938 192.5625 90.726562 192.464844 C 90.820312 192.449219 90.890625 192.421875 90.925781 192.394531 C 90.957031 192.371094 90.976562 192.339844 90.980469 192.3125 C 90.992188 192.277344 90.984375 192.230469 90.945312 192.1875 C 90.917969 192.152344 90.863281 192.109375 90.773438 192.066406 C 90.730469 192.046875 90.679688 192.0625 90.660156 192.105469 C 90.640625 192.148438 90.65625 192.199219 90.699219 192.21875 C 90.734375 192.234375 90.765625 192.257812 90.789062 192.277344 Z M 90.789062 192.277344 " fill-opacity="1" fill-rule="evenodd"/><path fill="#000000" d="M 91.582031 191.8125 C 90.324219 192.050781 93.113281 192.464844 93.542969 192.59375 C 95.695312 193.238281 97.65625 194.289062 99.699219 195.355469 C 103.449219 197.316406 118.714844 205.71875 113.316406 214.1875 C 107.582031 223.1875 97.917969 204.421875 95.136719 200.238281 C 93.953125 198.457031 92.0625 195.78125 91.382812 193.542969 C 91.125 192.679688 90.320312 190.261719 90.242188 191.195312 " fill-opacity="1" fill-rule="evenodd"/><path fill="#000000" d="M 90.34375 191.09375 C 90.355469 191.105469 90.367188 191.121094 90.378906 191.140625 C 90.425781 191.203125 90.472656 191.292969 90.527344 191.40625 C 90.796875 191.980469 91.148438 193.050781 91.304688 193.566406 C 91.984375 195.8125 93.878906 198.496094 95.066406 200.285156 C 96.738281 202.796875 100.890625 210.566406 105.183594 214.433594 C 106.921875 215.996094 108.6875 216.921875 110.320312 216.632812 C 111.414062 216.4375 112.453125 215.699219 113.386719 214.230469 C 115.570312 210.8125 114.417969 207.398438 112 204.410156 C 108.402344 199.964844 101.992188 196.457031 99.738281 195.28125 C 97.691406 194.210938 95.726562 193.15625 93.566406 192.511719 C 93.308594 192.433594 92.203125 192.253906 91.632812 192.074219 C 91.523438 192.039062 91.4375 192.003906 91.378906 191.972656 C 91.375 191.96875 91.371094 191.964844 91.363281 191.960938 C 91.371094 191.957031 91.375 191.957031 91.378906 191.953125 C 91.429688 191.933594 91.5 191.914062 91.597656 191.894531 C 91.644531 191.886719 91.671875 191.839844 91.664062 191.796875 C 91.65625 191.75 91.613281 191.71875 91.566406 191.726562 C 91.386719 191.761719 91.28125 191.804688 91.234375 191.84375 C 91.191406 191.878906 91.175781 191.917969 91.175781 191.953125 C 91.171875 191.984375 91.183594 192.019531 91.214844 192.050781 C 91.238281 192.078125 91.277344 192.109375 91.332031 192.136719 C 91.75 192.351562 93.214844 192.582031 93.515625 192.675781 C 95.667969 193.316406 97.625 194.367188 99.660156 195.429688 C 101.90625 196.601562 108.285156 200.089844 111.871094 204.515625 C 114.238281 207.445312 115.382812 210.789062 113.246094 214.140625 C 112.34375 215.554688 111.347656 216.277344 110.289062 216.464844 C 108.699219 216.75 106.988281 215.832031 105.296875 214.304688 C 101.015625 210.449219 96.875 202.699219 95.207031 200.191406 C 94.027344 198.414062 92.140625 195.75 91.464844 193.515625 C 91.28125 192.910156 90.828125 191.53125 90.546875 191.082031 C 90.492188 191 90.445312 190.945312 90.402344 190.921875 C 90.371094 190.902344 90.339844 190.894531 90.308594 190.898438 C 90.269531 190.90625 90.234375 190.925781 90.203125 190.980469 C 90.183594 191.019531 90.164062 191.085938 90.15625 191.1875 C 90.152344 191.234375 90.1875 191.273438 90.234375 191.277344 C 90.28125 191.28125 90.324219 191.246094 90.328125 191.199219 C 90.328125 191.160156 90.339844 191.121094 90.34375 191.09375 Z M 90.34375 191.09375 " fill-opacity="1" fill-rule="evenodd"/><path fill="#000000" d="M 89.617188 190.039062 C 89.6875 191.230469 90.433594 188.714844 90.609375 188.332031 C 91.496094 186.429688 92.742188 184.757812 94.015625 183.019531 C 95.835938 180.523438 102.492188 171.707031 108.953125 170.542969 C 110.757812 170.214844 112.546875 170.636719 114.179688 171.996094 C 120.578125 177.320312 108.648438 183.222656 101.714844 186.292969 C 100.167969 186.980469 98.867188 187.523438 98.078125 187.890625 C 96.238281 188.742188 93.453125 190.128906 91.238281 190.453125 C 90.386719 190.578125 87.984375 190.996094 88.863281 191.191406 " fill-opacity="1" fill-rule="evenodd"/><path fill="#000000" d="M 89.734375 190.25 C 89.730469 190.242188 89.726562 190.230469 89.726562 190.21875 C 89.714844 190.171875 89.707031 190.109375 89.703125 190.035156 C 89.699219 189.988281 89.660156 189.953125 89.613281 189.953125 C 89.566406 189.957031 89.53125 189.996094 89.535156 190.042969 C 89.542969 190.214844 89.570312 190.320312 89.601562 190.371094 C 89.628906 190.414062 89.664062 190.433594 89.699219 190.4375 C 89.730469 190.445312 89.765625 190.4375 89.800781 190.417969 C 89.832031 190.398438 89.863281 190.363281 89.898438 190.316406 C 90.15625 189.960938 90.5625 188.636719 90.6875 188.367188 C 91.570312 186.46875 92.816406 184.804688 94.082031 183.066406 C 95.175781 181.574219 98 177.808594 101.484375 174.78125 C 103.796875 172.773438 106.394531 171.089844 108.96875 170.625 C 110.746094 170.304688 112.515625 170.71875 114.125 172.058594 C 115.378906 173.105469 115.921875 174.167969 115.921875 175.230469 C 115.921875 176.296875 115.378906 177.359375 114.488281 178.390625 C 111.777344 181.527344 105.828125 184.378906 101.679688 186.21875 C 100.132812 186.902344 98.832031 187.449219 98.042969 187.8125 C 96.207031 188.664062 93.433594 190.046875 91.226562 190.371094 C 90.625 190.457031 89.257812 190.691406 88.792969 190.890625 C 88.707031 190.929688 88.652344 190.96875 88.621094 191.003906 C 88.597656 191.03125 88.585938 191.0625 88.585938 191.089844 C 88.589844 191.121094 88.597656 191.15625 88.628906 191.183594 C 88.660156 191.214844 88.726562 191.25 88.84375 191.273438 C 88.890625 191.285156 88.933594 191.257812 88.945312 191.210938 C 88.953125 191.164062 88.925781 191.121094 88.878906 191.109375 C 88.847656 191.101562 88.816406 191.09375 88.792969 191.082031 C 88.804688 191.074219 88.816406 191.070312 88.828125 191.0625 C 88.894531 191.03125 88.988281 190.996094 89.097656 190.964844 C 89.679688 190.792969 90.742188 190.613281 91.25 190.539062 C 93.472656 190.210938 96.265625 188.824219 98.113281 187.96875 C 98.902344 187.601562 100.203125 187.058594 101.746094 186.371094 C 105.917969 184.523438 111.890625 181.652344 114.617188 178.5 C 115.539062 177.433594 116.089844 176.335938 116.089844 175.230469 C 116.089844 174.128906 115.539062 173.015625 114.234375 171.929688 C 112.578125 170.554688 110.765625 170.128906 108.9375 170.457031 C 106.339844 170.925781 103.707031 172.625 101.371094 174.65625 C 97.878906 177.691406 95.042969 181.46875 93.945312 182.96875 C 92.671875 184.714844 91.421875 186.386719 90.53125 188.296875 C 90.425781 188.523438 90.117188 189.523438 89.871094 190.027344 C 89.824219 190.117188 89.78125 190.195312 89.742188 190.242188 C 89.742188 190.246094 89.738281 190.246094 89.734375 190.25 Z M 89.734375 190.25 " fill-opacity="1" fill-rule="evenodd"/><path fill="#000000" d="M 89.710938 195.761719 C 89.351562 194.390625 89.347656 197.5625 89.292969 198.058594 C 89.015625 200.554688 88.363281 202.890625 87.710938 205.3125 C 86.515625 209.769531 82.359375 227.925781 74.488281 223.023438 C 66.125 217.816406 79.785156 204.539062 82.996094 200.867188 C 84.359375 199.304688 86.398438 196.832031 88.214844 195.773438 C 88.914062 195.367188 90.871094 194.144531 90.070312 194.183594 " fill-opacity="1" fill-rule="evenodd"/><path fill="#000000" d="M 90.167969 194.273438 C 90.164062 194.28125 90.160156 194.289062 90.15625 194.296875 C 90.140625 194.320312 90.121094 194.347656 90.09375 194.375 C 89.753906 194.742188 88.65625 195.417969 88.171875 195.703125 C 86.347656 196.765625 84.300781 199.246094 82.929688 200.8125 C 81.003906 203.015625 75.308594 208.6875 72.867188 213.996094 C 71.226562 217.574219 71.058594 220.988281 74.445312 223.09375 C 75.726562 223.894531 76.914062 224.089844 78.003906 223.839844 C 79.628906 223.464844 81.050781 222.097656 82.269531 220.238281 C 85.285156 215.632812 87.074219 208.015625 87.792969 205.335938 C 88.445312 202.90625 89.097656 200.570312 89.375 198.070312 C 89.410156 197.769531 89.421875 196.511719 89.507812 195.847656 C 89.523438 195.726562 89.539062 195.628906 89.558594 195.5625 C 89.578125 195.609375 89.601562 195.683594 89.628906 195.785156 C 89.640625 195.832031 89.6875 195.859375 89.734375 195.84375 C 89.777344 195.832031 89.804688 195.789062 89.792969 195.742188 C 89.742188 195.550781 89.695312 195.441406 89.65625 195.394531 C 89.617188 195.34375 89.574219 195.335938 89.539062 195.339844 C 89.511719 195.339844 89.484375 195.355469 89.460938 195.382812 C 89.4375 195.410156 89.410156 195.460938 89.390625 195.539062 C 89.261719 196.035156 89.246094 197.699219 89.207031 198.050781 C 88.929688 200.542969 88.28125 202.871094 87.632812 205.289062 C 86.914062 207.960938 85.136719 215.554688 82.128906 220.144531 C 80.9375 221.960938 79.554688 223.308594 77.964844 223.671875 C 76.914062 223.914062 75.769531 223.722656 74.535156 222.953125 C 71.230469 220.894531 71.417969 217.558594 73.023438 214.066406 C 75.453125 208.773438 81.136719 203.121094 83.058594 200.921875 C 84.417969 199.367188 86.445312 196.902344 88.257812 195.847656 C 88.753906 195.558594 89.871094 194.867188 90.21875 194.492188 C 90.269531 194.433594 90.304688 194.382812 90.324219 194.339844 C 90.34375 194.296875 90.347656 194.257812 90.339844 194.226562 C 90.332031 194.183594 90.304688 194.148438 90.261719 194.125 C 90.222656 194.105469 90.15625 194.09375 90.066406 194.097656 C 90.019531 194.101562 89.980469 194.140625 89.984375 194.1875 C 89.988281 194.234375 90.027344 194.269531 90.074219 194.269531 C 90.109375 194.265625 90.144531 194.269531 90.167969 194.273438 Z M 90.167969 194.273438 " fill-opacity="1" fill-rule="evenodd"/><path fill="#ffde59" d="M 90.996094 198.945312 C 90.566406 198.957031 90.136719 198.929688 89.710938 198.859375 C 89.285156 198.789062 88.871094 198.679688 88.46875 198.527344 C 88.066406 198.375 87.683594 198.1875 87.316406 197.964844 C 86.953125 197.738281 86.613281 197.480469 86.296875 197.191406 C 85.984375 196.898438 85.703125 196.582031 85.453125 196.234375 C 85.203125 195.890625 84.992188 195.523438 84.8125 195.136719 C 84.636719 194.75 84.5 194.351562 84.40625 193.9375 C 84.308594 193.523438 84.253906 193.105469 84.242188 192.683594 C 84.230469 192.257812 84.261719 191.835938 84.332031 191.417969 C 84.40625 191 84.519531 190.59375 84.671875 190.199219 C 84.824219 189.800781 85.015625 189.425781 85.246094 189.066406 C 85.476562 188.707031 85.738281 188.371094 86.035156 188.0625 C 86.332031 187.753906 86.65625 187.476562 87.007812 187.230469 C 87.359375 186.988281 87.730469 186.777344 88.125 186.601562 C 88.519531 186.429688 88.925781 186.296875 89.347656 186.199219 C 89.769531 186.105469 90.195312 186.050781 90.625 186.039062 C 91.058594 186.027344 91.484375 186.054688 91.910156 186.125 C 92.335938 186.195312 92.75 186.308594 93.152344 186.457031 C 93.558594 186.609375 93.941406 186.796875 94.308594 187.023438 C 94.671875 187.246094 95.011719 187.503906 95.324219 187.796875 C 95.640625 188.085938 95.921875 188.40625 96.171875 188.75 C 96.421875 189.097656 96.632812 189.460938 96.808594 189.847656 C 96.984375 190.234375 97.121094 190.636719 97.21875 191.046875 C 97.3125 191.460938 97.367188 191.878906 97.378906 192.304688 C 97.394531 192.726562 97.363281 193.148438 97.289062 193.566406 C 97.21875 193.984375 97.105469 194.390625 96.953125 194.789062 C 96.796875 195.183594 96.605469 195.5625 96.375 195.921875 C 96.148438 196.28125 95.882812 196.613281 95.589844 196.921875 C 95.292969 197.230469 94.96875 197.507812 94.617188 197.753906 C 94.265625 198 93.890625 198.210938 93.496094 198.382812 C 93.101562 198.554688 92.695312 198.691406 92.277344 198.785156 C 91.855469 198.878906 91.429688 198.933594 90.996094 198.945312 Z M 90.996094 198.945312 " fill-opacity="1" fill-rule="nonzero"/><path fill="#ffde59" d="M 97.464844 192.300781 C 97.359375 188.695312 94.296875 185.847656 90.625 185.953125 C 86.949219 186.0625 84.054688 189.078125 84.160156 192.683594 C 84.261719 196.292969 87.328125 199.136719 91 199.03125 C 94.671875 198.925781 97.570312 195.910156 97.464844 192.300781 Z M 97.296875 192.304688 C 97.398438 195.820312 94.574219 198.757812 90.996094 198.863281 C 87.417969 198.964844 84.429688 196.195312 84.328125 192.679688 C 84.226562 189.164062 87.050781 186.226562 90.628906 186.125 C 94.207031 186.019531 97.195312 188.789062 97.296875 192.304688 Z M 97.296875 192.304688 " fill-opacity="1" fill-rule="evenodd"/><path fill="#ffffff" d="M 89.453125 182.203125 C 88.339844 179.125 86.703125 159.226562 93.769531 160.429688 C 100.757812 161.617188 90.710938 179.621094 90.570312 184.011719 C 90.554688 184.570312 90.402344 182.894531 90.234375 182.359375 C 90.007812 181.648438 89.21875 180.410156 89.5625 179.628906 " fill-opacity="1" fill-rule="evenodd"/><path fill="#ffffff" d="M 90.542969 182.996094 C 90.496094 182.722656 90.441406 182.460938 90.394531 182.308594 C 90.261719 181.882812 89.921875 181.269531 89.746094 180.675781 C 89.640625 180.320312 89.59375 179.976562 89.714844 179.695312 C 89.753906 179.609375 89.714844 179.511719 89.628906 179.472656 C 89.542969 179.433594 89.445312 179.472656 89.40625 179.558594 C 89.253906 179.90625 89.292969 180.332031 89.421875 180.769531 C 89.597656 181.367188 89.9375 181.984375 90.070312 182.410156 C 90.207031 182.839844 90.328125 184 90.382812 184.160156 C 90.425781 184.285156 90.523438 184.292969 90.558594 184.292969 C 90.597656 184.292969 90.640625 184.277344 90.679688 184.242188 C 90.691406 184.226562 90.710938 184.203125 90.722656 184.164062 C 90.726562 184.144531 90.738281 184.09375 90.738281 184.015625 C 90.777344 182.796875 91.59375 180.523438 92.585938 177.847656 C 94.09375 173.792969 96.015625 168.832031 96.355469 165.234375 C 96.609375 162.566406 95.984375 160.636719 93.796875 160.261719 C 91.59375 159.886719 90.183594 161.460938 89.347656 163.96875 C 87.464844 169.632812 88.507812 180.09375 89.292969 182.261719 C 89.324219 182.351562 89.421875 182.394531 89.507812 182.363281 C 89.597656 182.332031 89.640625 182.234375 89.609375 182.148438 C 88.835938 180.003906 87.808594 169.671875 89.671875 164.074219 C 90.441406 161.753906 91.703125 160.25 93.742188 160.597656 C 95.75 160.9375 96.253906 162.75 96.019531 165.203125 C 95.679688 168.777344 93.765625 173.703125 92.269531 177.730469 C 91.488281 179.828125 90.824219 181.6875 90.542969 182.996094 Z M 90.542969 182.996094 " fill-opacity="1" fill-rule="evenodd"/><path fill="#ffffff" d="M 83.023438 196.183594 C 81.023438 198.777344 65.121094 210.847656 62.335938 204.238281 C 59.585938 197.703125 80.167969 196.507812 83.945312 194.269531 C 84.429688 193.984375 83.09375 195.011719 82.734375 195.441406 C 82.257812 196.011719 81.636719 197.34375 80.792969 197.476562 " fill-opacity="1" fill-rule="evenodd"/><path fill="#ffffff" d="M 83.105469 194.835938 C 82.898438 195.027344 82.707031 195.210938 82.605469 195.332031 C 82.320312 195.675781 81.980469 196.289062 81.574219 196.757812 C 81.332031 197.035156 81.066406 197.261719 80.765625 197.308594 C 80.671875 197.324219 80.609375 197.410156 80.625 197.5 C 80.636719 197.59375 80.726562 197.65625 80.816406 197.640625 C 81.191406 197.585938 81.53125 197.324219 81.828125 196.976562 C 82.238281 196.511719 82.578125 195.894531 82.863281 195.550781 C 83.152344 195.207031 84.066406 194.476562 84.171875 194.347656 C 84.253906 194.246094 84.207031 194.15625 84.191406 194.128906 C 84.167969 194.09375 84.132812 194.066406 84.082031 194.054688 C 84.0625 194.050781 84.03125 194.046875 83.992188 194.058594 C 83.972656 194.066406 83.929688 194.082031 83.859375 194.125 C 82.808594 194.746094 80.453125 195.28125 77.664062 195.878906 C 73.433594 196.789062 68.21875 197.832031 65 199.476562 C 62.613281 200.695312 61.320312 202.261719 62.183594 204.304688 C 63.050781 206.363281 65.132812 206.710938 67.695312 206.066406 C 73.488281 204.613281 81.746094 198.113281 83.15625 196.285156 C 83.214844 196.214844 83.199219 196.105469 83.128906 196.050781 C 83.054688 195.992188 82.945312 196.007812 82.890625 196.078125 C 81.496094 197.882812 73.332031 204.300781 67.613281 205.738281 C 65.242188 206.332031 63.296875 206.078125 62.492188 204.171875 C 61.703125 202.292969 62.960938 200.898438 65.15625 199.777344 C 68.351562 198.144531 73.535156 197.113281 77.738281 196.210938 C 79.925781 195.742188 81.851562 195.304688 83.105469 194.835938 Z M 83.105469 194.835938 " fill-opacity="1" fill-rule="evenodd"/><path fill="#ffffff" d="M 100.535156 189.484375 C 103.140625 188.246094 120.40625 185.246094 119.914062 191.726562 C 119.425781 198.128906 102.890625 190.425781 99.042969 190.632812 C 98.550781 190.660156 100.007812 190.394531 100.460938 190.203125 C 101.0625 189.945312 102.085938 189.136719 102.796875 189.386719 " fill-opacity="1" fill-rule="evenodd"/><path fill="#000000" d="M 100.007812 190.527344 C 100.21875 190.46875 100.410156 190.40625 100.527344 190.355469 C 100.886719 190.203125 101.398438 189.851562 101.902344 189.648438 C 102.199219 189.527344 102.492188 189.460938 102.738281 189.546875 C 102.828125 189.578125 102.925781 189.53125 102.957031 189.441406 C 102.988281 189.355469 102.941406 189.257812 102.851562 189.226562 C 102.53125 189.113281 102.15625 189.183594 101.777344 189.335938 C 101.269531 189.539062 100.757812 189.890625 100.394531 190.046875 C 100.03125 190.203125 99.023438 190.402344 98.890625 190.460938 C 98.773438 190.515625 98.773438 190.613281 98.773438 190.644531 C 98.78125 190.6875 98.796875 190.726562 98.835938 190.757812 C 98.851562 190.773438 98.875 190.789062 98.914062 190.796875 C 98.933594 190.804688 98.980469 190.804688 99.054688 190.800781 C 100.121094 190.746094 102.171875 191.304688 104.582031 192 C 108.25 193.050781 112.738281 194.410156 115.914062 194.445312 C 118.28125 194.46875 119.925781 193.753906 120.082031 191.738281 C 120.234375 189.710938 118.746094 188.550781 116.476562 187.984375 C 111.371094 186.714844 102.300781 188.457031 100.460938 189.332031 C 100.378906 189.371094 100.339844 189.472656 100.382812 189.558594 C 100.421875 189.640625 100.523438 189.679688 100.605469 189.636719 C 102.417969 188.777344 111.363281 187.0625 116.394531 188.3125 C 118.476562 188.832031 119.886719 189.855469 119.742188 191.710938 C 119.605469 193.542969 118.070312 194.128906 115.917969 194.105469 C 112.769531 194.074219 108.316406 192.71875 104.675781 191.675781 C 102.820312 191.140625 101.171875 190.6875 100.007812 190.527344 Z M 100.007812 190.527344 " fill-opacity="1" fill-rule="evenodd"/><path fill="#ffffff" d="M 86.957031 200.609375 C 87.0625 203.882812 82.453125 223.308594 76.105469 219.972656 C 69.828125 216.679688 84.960938 202.671875 86.453125 198.546875 C 86.644531 198.015625 86.269531 199.660156 86.265625 200.21875 C 86.257812 200.964844 86.625 202.386719 86.054688 203.023438 " fill-opacity="1" fill-rule="evenodd"/><path fill="#ffffff" d="M 86.164062 199.519531 C 86.125 199.796875 86.09375 200.058594 86.09375 200.21875 C 86.089844 200.664062 86.222656 201.351562 86.203125 201.972656 C 86.195312 202.339844 86.132812 202.683594 85.929688 202.914062 C 85.867188 202.980469 85.875 203.089844 85.941406 203.152344 C 86.011719 203.214844 86.121094 203.207031 86.183594 203.136719 C 86.433594 202.855469 86.53125 202.4375 86.542969 201.980469 C 86.558594 201.359375 86.429688 200.667969 86.433594 200.21875 C 86.4375 199.773438 86.679688 198.628906 86.675781 198.460938 C 86.675781 198.332031 86.585938 198.289062 86.550781 198.28125 C 86.515625 198.269531 86.46875 198.269531 86.421875 198.292969 C 86.40625 198.300781 86.378906 198.320312 86.355469 198.351562 C 86.34375 198.371094 86.320312 198.414062 86.292969 198.488281 C 85.878906 199.632812 84.402344 201.546875 82.628906 203.777344 C 79.941406 207.171875 76.574219 211.289062 75.136719 214.605469 C 74.070312 217.066406 74.066406 219.09375 76.027344 220.125 C 78.007812 221.164062 79.835938 220.105469 81.40625 217.980469 C 84.953125 213.179688 87.199219 202.910156 87.128906 200.601562 C 87.125 200.511719 87.046875 200.4375 86.953125 200.441406 C 86.859375 200.441406 86.785156 200.519531 86.789062 200.613281 C 86.859375 202.890625 84.636719 213.035156 81.132812 217.78125 C 79.683594 219.746094 78.015625 220.785156 76.1875 219.824219 C 74.382812 218.878906 74.464844 217 75.445312 214.738281 C 76.875 211.445312 80.222656 207.359375 82.894531 203.988281 C 84.285156 202.238281 85.492188 200.675781 86.164062 199.519531 Z M 86.164062 199.519531 " fill-opacity="1" fill-rule="evenodd"/><path fill="#ffffff" d="M 93.066406 200.203125 C 94.804688 202.980469 100.621094 222.078125 93.457031 222.398438 C 86.375 222.71875 92.378906 202.996094 91.589844 198.675781 C 91.488281 198.125 91.992188 199.730469 92.269531 200.21875 C 92.640625 200.863281 93.675781 201.910156 93.503906 202.746094 " fill-opacity="1" fill-rule="evenodd"/><path fill="#ffffff" d="M 91.832031 199.664062 C 91.9375 199.921875 92.042969 200.164062 92.121094 200.304688 C 92.34375 200.691406 92.804688 201.21875 93.101562 201.761719 C 93.277344 202.085938 93.398438 202.414062 93.339844 202.710938 C 93.320312 202.804688 93.378906 202.894531 93.46875 202.914062 C 93.5625 202.929688 93.652344 202.871094 93.667969 202.78125 C 93.746094 202.410156 93.617188 202 93.398438 201.601562 C 93.097656 201.054688 92.636719 200.523438 92.414062 200.132812 C 92.191406 199.746094 91.828125 198.636719 91.742188 198.492188 C 91.671875 198.378906 91.574219 198.390625 91.539062 198.398438 C 91.503906 198.40625 91.464844 198.429688 91.433594 198.476562 C 91.425781 198.492188 91.410156 198.519531 91.40625 198.558594 C 91.40625 198.582031 91.410156 198.628906 91.421875 198.707031 C 91.644531 199.90625 91.328125 202.304688 90.925781 205.125 C 90.3125 209.410156 89.484375 214.664062 89.914062 218.253906 C 90.230469 220.914062 91.25 222.667969 93.464844 222.570312 C 95.699219 222.46875 96.746094 220.632812 97.027344 218.007812 C 97.671875 212.070312 94.433594 202.070312 93.207031 200.113281 C 93.160156 200.035156 93.054688 200.011719 92.976562 200.0625 C 92.898438 200.109375 92.871094 200.214844 92.921875 200.296875 C 94.132812 202.226562 97.324219 212.105469 96.691406 217.96875 C 96.429688 220.398438 95.515625 222.136719 93.449219 222.230469 C 91.414062 222.324219 90.539062 220.660156 90.25 218.210938 C 89.820312 214.648438 90.648438 209.429688 91.261719 205.175781 C 91.578125 202.957031 91.832031 201 91.832031 199.664062 Z M 91.832031 199.664062 " fill-opacity="1" fill-rule="evenodd"/><path fill="#ffffff" d="M 99.066406 196.714844 C 101.90625 197.695312 116.59375 208.230469 111.148438 212.863281 C 105.761719 217.449219 100.011719 199.195312 97.101562 196.492188 C 96.726562 196.144531 97.976562 197.023438 98.453125 197.210938 C 99.085938 197.460938 100.449219 197.597656 100.761719 198.320312 " fill-opacity="1" fill-rule="evenodd"/><path fill="#ffffff" d="M 97.8125 197.070312 C 98.035156 197.199219 98.253906 197.316406 98.386719 197.371094 C 98.769531 197.519531 99.410156 197.628906 99.929688 197.847656 C 100.234375 197.976562 100.496094 198.136719 100.605469 198.386719 C 100.640625 198.472656 100.742188 198.511719 100.828125 198.476562 C 100.914062 198.441406 100.953125 198.339844 100.917969 198.253906 C 100.777344 197.929688 100.453125 197.699219 100.0625 197.535156 C 99.539062 197.316406 98.894531 197.207031 98.515625 197.054688 C 98.132812 196.902344 97.257812 196.3125 97.113281 196.257812 C 96.996094 196.214844 96.925781 196.277344 96.902344 196.304688 C 96.878906 196.335938 96.859375 196.371094 96.863281 196.421875 C 96.863281 196.441406 96.867188 196.472656 96.890625 196.507812 C 96.902344 196.527344 96.929688 196.5625 96.984375 196.617188 C 97.792969 197.363281 98.816406 199.324219 99.992188 201.652344 C 101.785156 205.195312 103.921875 209.589844 106.164062 211.976562 C 107.835938 213.753906 109.566406 214.433594 111.257812 212.992188 C 112.957031 211.546875 112.796875 209.550781 111.625 207.433594 C 108.976562 202.652344 101.125 197.246094 99.125 196.554688 C 99.035156 196.523438 98.9375 196.570312 98.910156 196.65625 C 98.878906 196.746094 98.925781 196.84375 99.011719 196.875 C 100.984375 197.554688 108.71875 202.886719 111.328125 207.601562 C 112.410156 209.554688 112.605469 211.402344 111.039062 212.734375 C 109.496094 214.046875 107.933594 213.363281 106.414062 211.746094 C 104.1875 209.375 102.074219 205.015625 100.292969 201.5 C 99.367188 199.664062 98.527344 198.0625 97.8125 197.070312 Z M 97.8125 197.070312 " fill-opacity="1" fill-rule="evenodd"/><path fill="#ffffff" d="M 83.363281 190.078125 C 80.257812 191.078125 60.335938 192.226562 61.679688 185.503906 C 63.003906 178.859375 80.804688 188.824219 85.1875 189.050781 C 85.75 189.078125 84.070312 189.1875 83.53125 189.335938 C 82.820312 189.535156 81.5625 190.265625 80.789062 189.921875 " fill-opacity="1" fill-rule="evenodd"/><path fill="#ffffff" d="M 84.132812 189.050781 C 83.875 189.089844 83.632812 189.132812 83.488281 189.171875 C 83.058594 189.292969 82.4375 189.601562 81.839844 189.757812 C 81.484375 189.851562 81.136719 189.890625 80.855469 189.765625 C 80.769531 189.730469 80.671875 189.769531 80.632812 189.851562 C 80.59375 189.9375 80.632812 190.039062 80.71875 190.078125 C 81.0625 190.226562 81.488281 190.199219 81.925781 190.085938 C 82.523438 189.929688 83.148438 189.621094 83.578125 189.5 C 84.007812 189.378906 85.171875 189.285156 85.332031 189.238281 C 85.460938 189.199219 85.472656 189.097656 85.472656 189.066406 C 85.472656 189.023438 85.460938 188.980469 85.417969 188.941406 C 85.40625 188.929688 85.382812 188.910156 85.34375 188.898438 C 85.324219 188.894531 85.277344 188.882812 85.199219 188.878906 C 83.980469 188.816406 81.71875 187.992188 79.066406 186.988281 C 75.042969 185.464844 70.121094 183.527344 66.53125 183.128906 C 63.867188 182.832031 61.925781 183.394531 61.511719 185.472656 C 61.09375 187.570312 62.636719 188.957031 65.128906 189.804688 C 70.753906 191.722656 81.230469 190.941406 83.414062 190.238281 C 83.503906 190.210938 83.550781 190.117188 83.523438 190.027344 C 83.496094 189.9375 83.398438 189.890625 83.308594 189.917969 C 81.152344 190.613281 70.796875 191.378906 65.238281 189.484375 C 62.9375 188.703125 61.457031 187.472656 61.84375 185.539062 C 62.226562 183.628906 64.046875 183.191406 66.496094 183.464844 C 70.0625 183.863281 74.949219 185.792969 78.949219 187.304688 C 81.007812 188.085938 82.835938 188.75 84.132812 189.050781 Z M 84.132812 189.050781 " fill-opacity="1" fill-rule="evenodd"/><path fill="#ffffff" d="M 95.773438 184.847656 C 97.328125 181.964844 111.066406 167.484375 114.882812 173.554688 C 116.691406 176.433594 113.007812 178.96875 108.308594 181.136719 C 103.210938 183.492188 96.921875 185.417969 95.171875 186.886719 C 94.742188 187.246094 95.890625 186.015625 96.175781 185.53125 C 96.554688 184.890625 96.953125 183.476562 97.765625 183.210938 " fill-opacity="1" fill-rule="evenodd"/><path fill="#ffffff" d="M 95.910156 186.1875 C 96.082031 185.96875 96.242188 185.753906 96.324219 185.621094 C 96.550781 185.234375 96.78125 184.574219 97.109375 184.046875 C 97.304688 183.734375 97.527344 183.46875 97.816406 183.371094 C 97.90625 183.34375 97.953125 183.246094 97.925781 183.160156 C 97.898438 183.070312 97.800781 183.023438 97.710938 183.050781 C 97.351562 183.167969 97.0625 183.480469 96.820312 183.871094 C 96.496094 184.398438 96.257812 185.0625 96.03125 185.445312 C 95.800781 185.832031 95.019531 186.699219 94.9375 186.84375 C 94.871094 186.960938 94.929688 187.039062 94.953125 187.066406 C 94.980469 187.09375 95.015625 187.117188 95.074219 187.121094 C 95.089844 187.121094 95.121094 187.117188 95.160156 187.101562 C 95.175781 187.089844 95.21875 187.066406 95.28125 187.015625 C 95.972656 186.433594 97.382812 185.785156 99.148438 185.0625 C 101.828125 183.964844 105.320312 182.707031 108.382812 181.289062 C 111.230469 179.972656 113.707031 178.519531 114.839844 176.941406 C 115.628906 175.839844 115.789062 174.679688 115.027344 173.464844 C 113.835938 171.570312 111.722656 171.566406 109.300781 172.617188 C 103.820312 174.988281 96.71875 182.734375 95.621094 184.765625 C 95.578125 184.847656 95.609375 184.953125 95.691406 184.996094 C 95.773438 185.039062 95.875 185.007812 95.921875 184.929688 C 97.003906 182.921875 104.019531 175.269531 109.433594 172.925781 C 111.675781 171.957031 113.640625 171.894531 114.738281 173.644531 C 115.421875 174.730469 115.269531 175.761719 114.566406 176.742188 C 113.457031 178.285156 111.027344 179.695312 108.238281 180.984375 C 105.183594 182.394531 101.699219 183.652344 99.019531 184.75 C 97.765625 185.261719 96.6875 185.742188 95.910156 186.1875 Z M 95.910156 186.1875 " fill-opacity="1" fill-rule="evenodd"/><path fill="#ffffff" d="M 83.503906 186.574219 C 80.871094 184.621094 68.511719 168.945312 75.070312 166.042969 C 81.550781 163.171875 83.125 183.726562 85.433594 187.460938 C 85.726562 187.941406 84.675781 186.625 84.238281 186.273438 C 83.660156 185.804688 82.316406 185.210938 82.167969 184.367188 " fill-opacity="1" fill-rule="evenodd"/><path fill="#ffffff" d="M 84.847656 186.632812 C 84.65625 186.429688 84.46875 186.242188 84.347656 186.140625 C 84 185.863281 83.375 185.535156 82.902344 185.136719 C 82.621094 184.902344 82.390625 184.640625 82.335938 184.339844 C 82.320312 184.246094 82.230469 184.1875 82.140625 184.203125 C 82.046875 184.21875 81.988281 184.304688 82.003906 184.398438 C 82.066406 184.769531 82.335938 185.105469 82.6875 185.398438 C 83.160156 185.796875 83.785156 186.125 84.132812 186.40625 C 84.480469 186.6875 85.226562 187.585938 85.359375 187.691406 C 85.464844 187.769531 85.550781 187.722656 85.578125 187.703125 C 85.613281 187.683594 85.640625 187.648438 85.652344 187.59375 C 85.652344 187.574219 85.65625 187.546875 85.644531 187.507812 C 85.636719 187.484375 85.617188 187.441406 85.578125 187.375 C 84.9375 186.335938 84.359375 183.988281 83.707031 181.214844 C 82.722656 177 81.585938 171.804688 79.878906 168.617188 C 78.613281 166.25 77.027344 164.988281 75 165.886719 C 72.957031 166.792969 72.648438 168.882812 73.339844 171.433594 C 74.898438 177.195312 81.550781 185.335938 83.402344 186.710938 C 83.476562 186.769531 83.582031 186.753906 83.636719 186.675781 C 83.695312 186.601562 83.679688 186.496094 83.605469 186.441406 C 81.773438 185.082031 75.207031 177.039062 73.667969 171.34375 C 73.027344 168.984375 73.246094 167.035156 75.136719 166.195312 C 77 165.371094 78.417969 166.601562 79.582031 168.777344 C 81.273438 171.941406 82.398438 177.105469 83.378906 181.292969 C 83.886719 183.46875 84.359375 185.386719 84.847656 186.632812 Z M 84.847656 186.632812 " fill-opacity="1" fill-rule="evenodd"/><path stroke-linecap="butt" transform="matrix(0.968134, 0, 0, 0.968134, 90.171356, 234.276153)" fill="none" stroke-linejoin="miter" d="M 0.000535898 1.001867 L 201.063956 1.001867 " stroke="#000000" stroke-width="2" stroke-opacity="1" stroke-miterlimit="4"/><g fill="#000000" fill-opacity="1"><g transform="translate(19.535459, 252.477023)"><g><path d="M 8.609375 -5.59375 L 10.90625 -5.59375 L 10.90625 -1.1875 C 10.3125 -0.75 9.628906 -0.410156 8.859375 -0.171875 C 8.085938 0.0664062 7.304688 0.1875 6.515625 0.1875 C 5.390625 0.1875 4.378906 -0.0507812 3.484375 -0.53125 C 2.585938 -1.007812 1.882812 -1.675781 1.375 -2.53125 C 0.863281 -3.382812 0.609375 -4.347656 0.609375 -5.421875 C 0.609375 -6.492188 0.863281 -7.453125 1.375 -8.296875 C 1.882812 -9.148438 2.59375 -9.816406 3.5 -10.296875 C 4.40625 -10.785156 5.425781 -11.03125 6.5625 -11.03125 C 7.507812 -11.03125 8.367188 -10.867188 9.140625 -10.546875 C 9.921875 -10.222656 10.578125 -9.757812 11.109375 -9.15625 L 9.484375 -7.671875 C 8.710938 -8.484375 7.78125 -8.890625 6.6875 -8.890625 C 6 -8.890625 5.382812 -8.742188 4.84375 -8.453125 C 4.3125 -8.160156 3.894531 -7.75 3.59375 -7.21875 C 3.289062 -6.695312 3.140625 -6.097656 3.140625 -5.421875 C 3.140625 -4.742188 3.289062 -4.140625 3.59375 -3.609375 C 3.894531 -3.085938 4.3125 -2.679688 4.84375 -2.390625 C 5.375 -2.097656 5.976562 -1.953125 6.65625 -1.953125 C 7.375 -1.953125 8.023438 -2.109375 8.609375 -2.421875 Z M 8.609375 -5.59375 "/></g></g></g><g fill="#000000" fill-opacity="1"><g transform="translate(31.478383, 252.477023)"><g><path d="M 9.5 -8.328125 L 9.5 0 L 7.21875 0 L 7.21875 -0.984375 C 6.894531 -0.628906 6.507812 -0.351562 6.0625 -0.15625 C 5.625 0.03125 5.144531 0.125 4.625 0.125 C 3.53125 0.125 2.660156 -0.1875 2.015625 -0.8125 C 1.378906 -1.445312 1.0625 -2.382812 1.0625 -3.625 L 1.0625 -8.328125 L 3.484375 -8.328125 L 3.484375 -3.984375 C 3.484375 -2.640625 4.046875 -1.96875 5.171875 -1.96875 C 5.742188 -1.96875 6.207031 -2.15625 6.5625 -2.53125 C 6.914062 -2.90625 7.09375 -3.46875 7.09375 -4.21875 L 7.09375 -8.328125 Z M 3.71875 -9.46875 C 3.40625 -9.46875 3.144531 -9.566406 2.9375 -9.765625 C 2.726562 -9.972656 2.625 -10.234375 2.625 -10.546875 C 2.625 -10.859375 2.726562 -11.113281 2.9375 -11.3125 C 3.144531 -11.507812 3.40625 -11.609375 3.71875 -11.609375 C 4.019531 -11.609375 4.269531 -11.507812 4.46875 -11.3125 C 4.675781 -11.113281 4.78125 -10.859375 4.78125 -10.546875 C 4.78125 -10.234375 4.675781 -9.972656 4.46875 -9.765625 C 4.269531 -9.566406 4.019531 -9.46875 3.71875 -9.46875 Z M 6.84375 -9.46875 C 6.53125 -9.46875 6.269531 -9.566406 6.0625 -9.765625 C 5.863281 -9.972656 5.765625 -10.234375 5.765625 -10.546875 C 5.765625 -10.859375 5.863281 -11.113281 6.0625 -11.3125 C 6.269531 -11.507812 6.53125 -11.609375 6.84375 -11.609375 C 7.15625 -11.609375 7.410156 -11.507812 7.609375 -11.3125 C 7.816406 -11.113281 7.921875 -10.859375 7.921875 -10.546875 C 7.921875 -10.234375 7.816406 -9.972656 7.609375 -9.765625 C 7.410156 -9.566406 7.15625 -9.46875 6.84375 -9.46875 Z M 6.84375 -9.46875 "/></g></g></g><g fill="#000000" fill-opacity="1"><g transform="translate(42.120127, 252.477023)"><g><path d="M 1.109375 -11.484375 L 3.53125 -11.484375 L 3.53125 0 L 1.109375 0 Z M 1.109375 -11.484375 "/></g></g></g><g fill="#000000" fill-opacity="1"><g transform="translate(46.782667, 252.477023)"><g><path d="M 9.5 -8.328125 L 9.5 0 L 7.21875 0 L 7.21875 -0.984375 C 6.894531 -0.628906 6.507812 -0.351562 6.0625 -0.15625 C 5.625 0.03125 5.144531 0.125 4.625 0.125 C 3.53125 0.125 2.660156 -0.1875 2.015625 -0.8125 C 1.378906 -1.445312 1.0625 -2.382812 1.0625 -3.625 L 1.0625 -8.328125 L 3.484375 -8.328125 L 3.484375 -3.984375 C 3.484375 -2.640625 4.046875 -1.96875 5.171875 -1.96875 C 5.742188 -1.96875 6.207031 -2.15625 6.5625 -2.53125 C 6.914062 -2.90625 7.09375 -3.46875 7.09375 -4.21875 L 7.09375 -8.328125 Z M 3.71875 -9.46875 C 3.40625 -9.46875 3.144531 -9.566406 2.9375 -9.765625 C 2.726562 -9.972656 2.625 -10.234375 2.625 -10.546875 C 2.625 -10.859375 2.726562 -11.113281 2.9375 -11.3125 C 3.144531 -11.507812 3.40625 -11.609375 3.71875 -11.609375 C 4.019531 -11.609375 4.269531 -11.507812 4.46875 -11.3125 C 4.675781 -11.113281 4.78125 -10.859375 4.78125 -10.546875 C 4.78125 -10.234375 4.675781 -9.972656 4.46875 -9.765625 C 4.269531 -9.566406 4.019531 -9.46875 3.71875 -9.46875 Z M 6.84375 -9.46875 C 6.53125 -9.46875 6.269531 -9.566406 6.0625 -9.765625 C 5.863281 -9.972656 5.765625 -10.234375 5.765625 -10.546875 C 5.765625 -10.859375 5.863281 -11.113281 6.0625 -11.3125 C 6.269531 -11.507812 6.53125 -11.609375 6.84375 -11.609375 C 7.15625 -11.609375 7.410156 -11.507812 7.609375 -11.3125 C 7.816406 -11.113281 7.921875 -10.859375 7.921875 -10.546875 C 7.921875 -10.234375 7.816406 -9.972656 7.609375 -9.765625 C 7.410156 -9.566406 7.15625 -9.46875 6.84375 -9.46875 Z M 6.84375 -9.46875 "/></g></g></g><g fill="#000000" fill-opacity="1"><g transform="translate(57.424411, 252.477023)"><g><path d="M 11.78125 -8.453125 C 12.820312 -8.453125 13.648438 -8.144531 14.265625 -7.53125 C 14.878906 -6.914062 15.1875 -5.992188 15.1875 -4.765625 L 15.1875 0 L 12.78125 0 L 12.78125 -4.390625 C 12.78125 -5.054688 12.640625 -5.550781 12.359375 -5.875 C 12.085938 -6.195312 11.695312 -6.359375 11.1875 -6.359375 C 10.625 -6.359375 10.175781 -6.175781 9.84375 -5.8125 C 9.519531 -5.445312 9.359375 -4.90625 9.359375 -4.1875 L 9.359375 0 L 6.9375 0 L 6.9375 -4.390625 C 6.9375 -5.703125 6.410156 -6.359375 5.359375 -6.359375 C 4.796875 -6.359375 4.347656 -6.175781 4.015625 -5.8125 C 3.691406 -5.445312 3.53125 -4.90625 3.53125 -4.1875 L 3.53125 0 L 1.109375 0 L 1.109375 -8.328125 L 3.421875 -8.328125 L 3.421875 -7.375 C 3.734375 -7.71875 4.113281 -7.984375 4.5625 -8.171875 C 5.007812 -8.359375 5.5 -8.453125 6.03125 -8.453125 C 6.625 -8.453125 7.15625 -8.332031 7.625 -8.09375 C 8.101562 -7.863281 8.488281 -7.53125 8.78125 -7.09375 C 9.125 -7.519531 9.554688 -7.851562 10.078125 -8.09375 C 10.597656 -8.332031 11.164062 -8.453125 11.78125 -8.453125 Z M 11.78125 -8.453125 "/></g></g></g><g fill="#000000" fill-opacity="1"><g transform="translate(73.673591, 252.477023)"><g><path d="M 3.921875 0.125 C 3.222656 0.125 2.539062 0.0390625 1.875 -0.125 C 1.21875 -0.300781 0.695312 -0.519531 0.3125 -0.78125 L 1.109375 -2.515625 C 1.484375 -2.273438 1.929688 -2.078125 2.453125 -1.921875 C 2.984375 -1.773438 3.503906 -1.703125 4.015625 -1.703125 C 5.035156 -1.703125 5.546875 -1.957031 5.546875 -2.46875 C 5.546875 -2.695312 5.40625 -2.863281 5.125 -2.96875 C 4.84375 -3.070312 4.414062 -3.160156 3.84375 -3.234375 C 3.15625 -3.335938 2.585938 -3.457031 2.140625 -3.59375 C 1.703125 -3.726562 1.320312 -3.960938 1 -4.296875 C 0.675781 -4.640625 0.515625 -5.128906 0.515625 -5.765625 C 0.515625 -6.285156 0.664062 -6.75 0.96875 -7.15625 C 1.269531 -7.5625 1.710938 -7.878906 2.296875 -8.109375 C 2.878906 -8.335938 3.566406 -8.453125 4.359375 -8.453125 C 4.953125 -8.453125 5.539062 -8.382812 6.125 -8.25 C 6.707031 -8.125 7.191406 -7.953125 7.578125 -7.734375 L 6.765625 -6.015625 C 6.035156 -6.421875 5.234375 -6.625 4.359375 -6.625 C 3.847656 -6.625 3.460938 -6.550781 3.203125 -6.40625 C 2.941406 -6.257812 2.8125 -6.078125 2.8125 -5.859375 C 2.8125 -5.597656 2.953125 -5.414062 3.234375 -5.3125 C 3.515625 -5.207031 3.957031 -5.109375 4.5625 -5.015625 C 5.25 -4.898438 5.804688 -4.773438 6.234375 -4.640625 C 6.671875 -4.515625 7.046875 -4.28125 7.359375 -3.9375 C 7.679688 -3.601562 7.84375 -3.132812 7.84375 -2.53125 C 7.84375 -2.007812 7.6875 -1.546875 7.375 -1.140625 C 7.070312 -0.742188 6.625 -0.429688 6.03125 -0.203125 C 5.4375 0.015625 4.734375 0.125 3.921875 0.125 Z M 3.921875 0.125 "/></g></g></g><g fill="#000000" fill-opacity="1"><g transform="translate(81.898871, 252.477023)"><g><path d="M 9.28125 -4.140625 C 9.28125 -4.109375 9.265625 -3.890625 9.234375 -3.484375 L 2.921875 -3.484375 C 3.035156 -2.960938 3.300781 -2.550781 3.71875 -2.25 C 4.144531 -1.957031 4.675781 -1.8125 5.3125 -1.8125 C 5.75 -1.8125 6.132812 -1.875 6.46875 -2 C 6.800781 -2.132812 7.113281 -2.335938 7.40625 -2.609375 L 8.6875 -1.21875 C 7.90625 -0.320312 6.757812 0.125 5.25 0.125 C 4.3125 0.125 3.476562 -0.0546875 2.75 -0.421875 C 2.03125 -0.785156 1.472656 -1.289062 1.078125 -1.9375 C 0.691406 -2.59375 0.5 -3.335938 0.5 -4.171875 C 0.5 -4.984375 0.691406 -5.71875 1.078125 -6.375 C 1.460938 -7.03125 1.992188 -7.539062 2.671875 -7.90625 C 3.347656 -8.269531 4.101562 -8.453125 4.9375 -8.453125 C 5.75 -8.453125 6.484375 -8.273438 7.140625 -7.921875 C 7.804688 -7.578125 8.328125 -7.078125 8.703125 -6.421875 C 9.085938 -5.765625 9.28125 -5.003906 9.28125 -4.140625 Z M 4.953125 -6.625 C 4.410156 -6.625 3.953125 -6.46875 3.578125 -6.15625 C 3.203125 -5.851562 2.972656 -5.429688 2.890625 -4.890625 L 7 -4.890625 C 6.914062 -5.421875 6.6875 -5.84375 6.3125 -6.15625 C 5.945312 -6.46875 5.492188 -6.625 4.953125 -6.625 Z M 4.953125 -6.625 "/></g></g></g><g fill="#000000" fill-opacity="1"><g transform="translate(91.67317, 252.477023)"><g><path d="M 11.78125 -8.453125 C 12.820312 -8.453125 13.648438 -8.144531 14.265625 -7.53125 C 14.878906 -6.914062 15.1875 -5.992188 15.1875 -4.765625 L 15.1875 0 L 12.78125 0 L 12.78125 -4.390625 C 12.78125 -5.054688 12.640625 -5.550781 12.359375 -5.875 C 12.085938 -6.195312 11.695312 -6.359375 11.1875 -6.359375 C 10.625 -6.359375 10.175781 -6.175781 9.84375 -5.8125 C 9.519531 -5.445312 9.359375 -4.90625 9.359375 -4.1875 L 9.359375 0 L 6.9375 0 L 6.9375 -4.390625 C 6.9375 -5.703125 6.410156 -6.359375 5.359375 -6.359375 C 4.796875 -6.359375 4.347656 -6.175781 4.015625 -5.8125 C 3.691406 -5.445312 3.53125 -4.90625 3.53125 -4.1875 L 3.53125 0 L 1.109375 0 L 1.109375 -8.328125 L 3.421875 -8.328125 L 3.421875 -7.375 C 3.734375 -7.71875 4.113281 -7.984375 4.5625 -8.171875 C 5.007812 -8.359375 5.5 -8.453125 6.03125 -8.453125 C 6.625 -8.453125 7.15625 -8.332031 7.625 -8.09375 C 8.101562 -7.863281 8.488281 -7.53125 8.78125 -7.09375 C 9.125 -7.519531 9.554688 -7.851562 10.078125 -8.09375 C 10.597656 -8.332031 11.164062 -8.453125 11.78125 -8.453125 Z M 11.78125 -8.453125 "/></g></g></g><g fill="#000000" fill-opacity="1"><g transform="translate(107.922351, 252.477023)"><g><path d="M 9.28125 -4.140625 C 9.28125 -4.109375 9.265625 -3.890625 9.234375 -3.484375 L 2.921875 -3.484375 C 3.035156 -2.960938 3.300781 -2.550781 3.71875 -2.25 C 4.144531 -1.957031 4.675781 -1.8125 5.3125 -1.8125 C 5.75 -1.8125 6.132812 -1.875 6.46875 -2 C 6.800781 -2.132812 7.113281 -2.335938 7.40625 -2.609375 L 8.6875 -1.21875 C 7.90625 -0.320312 6.757812 0.125 5.25 0.125 C 4.3125 0.125 3.476562 -0.0546875 2.75 -0.421875 C 2.03125 -0.785156 1.472656 -1.289062 1.078125 -1.9375 C 0.691406 -2.59375 0.5 -3.335938 0.5 -4.171875 C 0.5 -4.984375 0.691406 -5.71875 1.078125 -6.375 C 1.460938 -7.03125 1.992188 -7.539062 2.671875 -7.90625 C 3.347656 -8.269531 4.101562 -8.453125 4.9375 -8.453125 C 5.75 -8.453125 6.484375 -8.273438 7.140625 -7.921875 C 7.804688 -7.578125 8.328125 -7.078125 8.703125 -6.421875 C 9.085938 -5.765625 9.28125 -5.003906 9.28125 -4.140625 Z M 4.953125 -6.625 C 4.410156 -6.625 3.953125 -6.46875 3.578125 -6.15625 C 3.203125 -5.851562 2.972656 -5.429688 2.890625 -4.890625 L 7 -4.890625 C 6.914062 -5.421875 6.6875 -5.84375 6.3125 -6.15625 C 5.945312 -6.46875 5.492188 -6.625 4.953125 -6.625 Z M 4.953125 -6.625 "/></g></g></g><g fill="#000000" fill-opacity="1"><g transform="translate(117.69665, 252.477023)"><g><path d="M 6.171875 -8.453125 C 7.210938 -8.453125 8.046875 -8.140625 8.671875 -7.515625 C 9.304688 -6.898438 9.625 -5.984375 9.625 -4.765625 L 9.625 0 L 7.21875 0 L 7.21875 -4.390625 C 7.21875 -5.054688 7.070312 -5.550781 6.78125 -5.875 C 6.488281 -6.195312 6.070312 -6.359375 5.53125 -6.359375 C 4.914062 -6.359375 4.425781 -6.171875 4.0625 -5.796875 C 3.707031 -5.421875 3.53125 -4.863281 3.53125 -4.125 L 3.53125 0 L 1.109375 0 L 1.109375 -8.328125 L 3.421875 -8.328125 L 3.421875 -7.359375 C 3.742188 -7.703125 4.140625 -7.96875 4.609375 -8.15625 C 5.085938 -8.351562 5.609375 -8.453125 6.171875 -8.453125 Z M 6.171875 -8.453125 "/></g></g></g><g fill="#000000" fill-opacity="1"><g transform="translate(128.40035, 252.477023)"><g><path d="M 1.109375 -8.328125 L 3.53125 -8.328125 L 3.53125 0 L 1.109375 0 Z M 2.328125 -9.46875 C 1.941406 -9.46875 1.625 -9.59375 1.375 -9.84375 C 1.132812 -10.09375 1.015625 -10.410156 1.015625 -10.796875 C 1.015625 -11.160156 1.132812 -11.46875 1.375 -11.71875 C 1.625 -11.96875 1.941406 -12.09375 2.328125 -12.09375 C 2.703125 -12.09375 3.007812 -11.96875 3.25 -11.71875 C 3.5 -11.46875 3.625 -11.160156 3.625 -10.796875 C 3.625 -10.410156 3.5 -10.09375 3.25 -9.84375 C 3.007812 -9.59375 2.703125 -9.46875 2.328125 -9.46875 Z M 2.328125 -9.46875 "/></g></g></g><g fill="#000000" fill-opacity="1"><g transform="translate(133.06289, 252.477023)"><g><path d="M 6.171875 -8.453125 C 7.210938 -8.453125 8.046875 -8.140625 8.671875 -7.515625 C 9.304688 -6.898438 9.625 -5.984375 9.625 -4.765625 L 9.625 0 L 7.21875 0 L 7.21875 -4.390625 C 7.21875 -5.054688 7.070312 -5.550781 6.78125 -5.875 C 6.488281 -6.195312 6.070312 -6.359375 5.53125 -6.359375 C 4.914062 -6.359375 4.425781 -6.171875 4.0625 -5.796875 C 3.707031 -5.421875 3.53125 -4.863281 3.53125 -4.125 L 3.53125 0 L 1.109375 0 L 1.109375 -8.328125 L 3.421875 -8.328125 L 3.421875 -7.359375 C 3.742188 -7.703125 4.140625 -7.96875 4.609375 -8.15625 C 5.085938 -8.351562 5.609375 -8.453125 6.171875 -8.453125 Z M 6.171875 -8.453125 "/></g></g></g><g fill="#000000" fill-opacity="1"><g transform="translate(143.76659, 252.477023)"><g/></g></g><g fill="#000000" fill-opacity="1"><g transform="translate(148.150313, 252.477023)"><g><path d="M 9.390625 -8.328125 L 5.875 0 L 3.375 0 L -0.125 -8.328125 L 2.375 -8.328125 L 4.671875 -2.65625 L 7.0625 -8.328125 Z M 9.390625 -8.328125 "/></g></g></g><g fill="#000000" fill-opacity="1"><g transform="translate(157.413438, 252.477023)"><g><path d="M 9.28125 -4.140625 C 9.28125 -4.109375 9.265625 -3.890625 9.234375 -3.484375 L 2.921875 -3.484375 C 3.035156 -2.960938 3.300781 -2.550781 3.71875 -2.25 C 4.144531 -1.957031 4.675781 -1.8125 5.3125 -1.8125 C 5.75 -1.8125 6.132812 -1.875 6.46875 -2 C 6.800781 -2.132812 7.113281 -2.335938 7.40625 -2.609375 L 8.6875 -1.21875 C 7.90625 -0.320312 6.757812 0.125 5.25 0.125 C 4.3125 0.125 3.476562 -0.0546875 2.75 -0.421875 C 2.03125 -0.785156 1.472656 -1.289062 1.078125 -1.9375 C 0.691406 -2.59375 0.5 -3.335938 0.5 -4.171875 C 0.5 -4.984375 0.691406 -5.71875 1.078125 -6.375 C 1.460938 -7.03125 1.992188 -7.539062 2.671875 -7.90625 C 3.347656 -8.269531 4.101562 -8.453125 4.9375 -8.453125 C 5.75 -8.453125 6.484375 -8.273438 7.140625 -7.921875 C 7.804688 -7.578125 8.328125 -7.078125 8.703125 -6.421875 C 9.085938 -5.765625 9.28125 -5.003906 9.28125 -4.140625 Z M 4.953125 -6.625 C 4.410156 -6.625 3.953125 -6.46875 3.578125 -6.15625 C 3.203125 -5.851562 2.972656 -5.429688 2.890625 -4.890625 L 7 -4.890625 C 6.914062 -5.421875 6.6875 -5.84375 6.3125 -6.15625 C 5.945312 -6.46875 5.492188 -6.625 4.953125 -6.625 Z M 4.953125 -6.625 "/></g></g></g><g fill="#000000" fill-opacity="1"><g transform="translate(167.187738, 252.477023)"><g/></g></g><g fill="#000000" fill-opacity="1"><g transform="translate(171.571461, 252.477023)"><g><path d="M 9.703125 -8.328125 L 9.703125 -1.390625 C 9.703125 0.128906 9.304688 1.257812 8.515625 2 C 7.722656 2.75 6.5625 3.125 5.03125 3.125 C 4.226562 3.125 3.460938 3.023438 2.734375 2.828125 C 2.015625 2.640625 1.414062 2.359375 0.9375 1.984375 L 1.90625 0.25 C 2.257812 0.539062 2.703125 0.769531 3.234375 0.9375 C 3.773438 1.101562 4.3125 1.1875 4.84375 1.1875 C 5.675781 1.1875 6.289062 1 6.6875 0.625 C 7.09375 0.25 7.296875 -0.316406 7.296875 -1.078125 L 7.296875 -1.4375 C 6.660156 -0.75 5.78125 -0.40625 4.65625 -0.40625 C 3.894531 -0.40625 3.195312 -0.570312 2.5625 -0.90625 C 1.925781 -1.238281 1.421875 -1.707031 1.046875 -2.3125 C 0.679688 -2.925781 0.5 -3.628906 0.5 -4.421875 C 0.5 -5.222656 0.679688 -5.925781 1.046875 -6.53125 C 1.421875 -7.144531 1.925781 -7.617188 2.5625 -7.953125 C 3.195312 -8.285156 3.894531 -8.453125 4.65625 -8.453125 C 5.863281 -8.453125 6.785156 -8.054688 7.421875 -7.265625 L 7.421875 -8.328125 Z M 5.140625 -2.390625 C 5.773438 -2.390625 6.296875 -2.578125 6.703125 -2.953125 C 7.117188 -3.328125 7.328125 -3.816406 7.328125 -4.421875 C 7.328125 -5.035156 7.117188 -5.53125 6.703125 -5.90625 C 6.296875 -6.28125 5.773438 -6.46875 5.140625 -6.46875 C 4.503906 -6.46875 3.976562 -6.28125 3.5625 -5.90625 C 3.144531 -5.53125 2.9375 -5.035156 2.9375 -4.421875 C 2.9375 -3.816406 3.144531 -3.328125 3.5625 -2.953125 C 3.976562 -2.578125 4.503906 -2.390625 5.140625 -2.390625 Z M 5.140625 -2.390625 "/></g></g></g><g fill="#000000" fill-opacity="1"><g transform="translate(182.414584, 252.477023)"><g><path d="M 9.5 -8.328125 L 9.5 0 L 7.21875 0 L 7.21875 -0.984375 C 6.894531 -0.628906 6.507812 -0.351562 6.0625 -0.15625 C 5.625 0.03125 5.144531 0.125 4.625 0.125 C 3.53125 0.125 2.660156 -0.1875 2.015625 -0.8125 C 1.378906 -1.445312 1.0625 -2.382812 1.0625 -3.625 L 1.0625 -8.328125 L 3.484375 -8.328125 L 3.484375 -3.984375 C 3.484375 -2.640625 4.046875 -1.96875 5.171875 -1.96875 C 5.742188 -1.96875 6.207031 -2.15625 6.5625 -2.53125 C 6.914062 -2.90625 7.09375 -3.46875 7.09375 -4.21875 L 7.09375 -8.328125 Z M 3.71875 -9.46875 C 3.40625 -9.46875 3.144531 -9.566406 2.9375 -9.765625 C 2.726562 -9.972656 2.625 -10.234375 2.625 -10.546875 C 2.625 -10.859375 2.726562 -11.113281 2.9375 -11.3125 C 3.144531 -11.507812 3.40625 -11.609375 3.71875 -11.609375 C 4.019531 -11.609375 4.269531 -11.507812 4.46875 -11.3125 C 4.675781 -11.113281 4.78125 -10.859375 4.78125 -10.546875 C 4.78125 -10.234375 4.675781 -9.972656 4.46875 -9.765625 C 4.269531 -9.566406 4.019531 -9.46875 3.71875 -9.46875 Z M 6.84375 -9.46875 C 6.53125 -9.46875 6.269531 -9.566406 6.0625 -9.765625 C 5.863281 -9.972656 5.765625 -10.234375 5.765625 -10.546875 C 5.765625 -10.859375 5.863281 -11.113281 6.0625 -11.3125 C 6.269531 -11.507812 6.53125 -11.609375 6.84375 -11.609375 C 7.15625 -11.609375 7.410156 -11.507812 7.609375 -11.3125 C 7.816406 -11.113281 7.921875 -10.859375 7.921875 -10.546875 C 7.921875 -10.234375 7.816406 -9.972656 7.609375 -9.765625 C 7.410156 -9.566406 7.15625 -9.46875 6.84375 -9.46875 Z M 6.84375 -9.46875 "/></g></g></g><g fill="#000000" fill-opacity="1"><g transform="translate(193.056327, 252.477023)"><g><path d="M 1.109375 -11.484375 L 3.53125 -11.484375 L 3.53125 0 L 1.109375 0 Z M 1.109375 -11.484375 "/></g></g></g><g fill="#000000" fill-opacity="1"><g transform="translate(197.718868, 252.477023)"><g><path d="M 9.5 -8.328125 L 9.5 0 L 7.21875 0 L 7.21875 -0.984375 C 6.894531 -0.628906 6.507812 -0.351562 6.0625 -0.15625 C 5.625 0.03125 5.144531 0.125 4.625 0.125 C 3.53125 0.125 2.660156 -0.1875 2.015625 -0.8125 C 1.378906 -1.445312 1.0625 -2.382812 1.0625 -3.625 L 1.0625 -8.328125 L 3.484375 -8.328125 L 3.484375 -3.984375 C 3.484375 -2.640625 4.046875 -1.96875 5.171875 -1.96875 C 5.742188 -1.96875 6.207031 -2.15625 6.5625 -2.53125 C 6.914062 -2.90625 7.09375 -3.46875 7.09375 -4.21875 L 7.09375 -8.328125 Z M 3.71875 -9.46875 C 3.40625 -9.46875 3.144531 -9.566406 2.9375 -9.765625 C 2.726562 -9.972656 2.625 -10.234375 2.625 -10.546875 C 2.625 -10.859375 2.726562 -11.113281 2.9375 -11.3125 C 3.144531 -11.507812 3.40625 -11.609375 3.71875 -11.609375 C 4.019531 -11.609375 4.269531 -11.507812 4.46875 -11.3125 C 4.675781 -11.113281 4.78125 -10.859375 4.78125 -10.546875 C 4.78125 -10.234375 4.675781 -9.972656 4.46875 -9.765625 C 4.269531 -9.566406 4.019531 -9.46875 3.71875 -9.46875 Z M 6.84375 -9.46875 C 6.53125 -9.46875 6.269531 -9.566406 6.0625 -9.765625 C 5.863281 -9.972656 5.765625 -10.234375 5.765625 -10.546875 C 5.765625 -10.859375 5.863281 -11.113281 6.0625 -11.3125 C 6.269531 -11.507812 6.53125 -11.609375 6.84375 -11.609375 C 7.15625 -11.609375 7.410156 -11.507812 7.609375 -11.3125 C 7.816406 -11.113281 7.921875 -10.859375 7.921875 -10.546875 C 7.921875 -10.234375 7.816406 -9.972656 7.609375 -9.765625 C 7.410156 -9.566406 7.15625 -9.46875 6.84375 -9.46875 Z M 6.84375 -9.46875 "/></g></g></g><g fill="#000000" fill-opacity="1"><g transform="translate(208.360611, 252.477023)"><g><path d="M 11.78125 -8.453125 C 12.820312 -8.453125 13.648438 -8.144531 14.265625 -7.53125 C 14.878906 -6.914062 15.1875 -5.992188 15.1875 -4.765625 L 15.1875 0 L 12.78125 0 L 12.78125 -4.390625 C 12.78125 -5.054688 12.640625 -5.550781 12.359375 -5.875 C 12.085938 -6.195312 11.695312 -6.359375 11.1875 -6.359375 C 10.625 -6.359375 10.175781 -6.175781 9.84375 -5.8125 C 9.519531 -5.445312 9.359375 -4.90625 9.359375 -4.1875 L 9.359375 0 L 6.9375 0 L 6.9375 -4.390625 C 6.9375 -5.703125 6.410156 -6.359375 5.359375 -6.359375 C 4.796875 -6.359375 4.347656 -6.175781 4.015625 -5.8125 C 3.691406 -5.445312 3.53125 -4.90625 3.53125 -4.1875 L 3.53125 0 L 1.109375 0 L 1.109375 -8.328125 L 3.421875 -8.328125 L 3.421875 -7.375 C 3.734375 -7.71875 4.113281 -7.984375 4.5625 -8.171875 C 5.007812 -8.359375 5.5 -8.453125 6.03125 -8.453125 C 6.625 -8.453125 7.15625 -8.332031 7.625 -8.09375 C 8.101562 -7.863281 8.488281 -7.53125 8.78125 -7.09375 C 9.125 -7.519531 9.554688 -7.851562 10.078125 -8.09375 C 10.597656 -8.332031 11.164062 -8.453125 11.78125 -8.453125 Z M 11.78125 -8.453125 "/></g></g></g><g fill="#000000" fill-opacity="1"><g transform="translate(224.609791, 252.477023)"><g><path d="M 3.921875 0.125 C 3.222656 0.125 2.539062 0.0390625 1.875 -0.125 C 1.21875 -0.300781 0.695312 -0.519531 0.3125 -0.78125 L 1.109375 -2.515625 C 1.484375 -2.273438 1.929688 -2.078125 2.453125 -1.921875 C 2.984375 -1.773438 3.503906 -1.703125 4.015625 -1.703125 C 5.035156 -1.703125 5.546875 -1.957031 5.546875 -2.46875 C 5.546875 -2.695312 5.40625 -2.863281 5.125 -2.96875 C 4.84375 -3.070312 4.414062 -3.160156 3.84375 -3.234375 C 3.15625 -3.335938 2.585938 -3.457031 2.140625 -3.59375 C 1.703125 -3.726562 1.320312 -3.960938 1 -4.296875 C 0.675781 -4.640625 0.515625 -5.128906 0.515625 -5.765625 C 0.515625 -6.285156 0.664062 -6.75 0.96875 -7.15625 C 1.269531 -7.5625 1.710938 -7.878906 2.296875 -8.109375 C 2.878906 -8.335938 3.566406 -8.453125 4.359375 -8.453125 C 4.953125 -8.453125 5.539062 -8.382812 6.125 -8.25 C 6.707031 -8.125 7.191406 -7.953125 7.578125 -7.734375 L 6.765625 -6.015625 C 6.035156 -6.421875 5.234375 -6.625 4.359375 -6.625 C 3.847656 -6.625 3.460938 -6.550781 3.203125 -6.40625 C 2.941406 -6.257812 2.8125 -6.078125 2.8125 -5.859375 C 2.8125 -5.597656 2.953125 -5.414062 3.234375 -5.3125 C 3.515625 -5.207031 3.957031 -5.109375 4.5625 -5.015625 C 5.25 -4.898438 5.804688 -4.773438 6.234375 -4.640625 C 6.671875 -4.515625 7.046875 -4.28125 7.359375 -3.9375 C 7.679688 -3.601562 7.84375 -3.132812 7.84375 -2.53125 C 7.84375 -2.007812 7.6875 -1.546875 7.375 -1.140625 C 7.070312 -0.742188 6.625 -0.429688 6.03125 -0.203125 C 5.4375 0.015625 4.734375 0.125 3.921875 0.125 Z M 3.921875 0.125 "/></g></g></g><g fill="#000000" fill-opacity="1"><g transform="translate(232.835071, 252.477023)"><g><path d="M 9.28125 -4.140625 C 9.28125 -4.109375 9.265625 -3.890625 9.234375 -3.484375 L 2.921875 -3.484375 C 3.035156 -2.960938 3.300781 -2.550781 3.71875 -2.25 C 4.144531 -1.957031 4.675781 -1.8125 5.3125 -1.8125 C 5.75 -1.8125 6.132812 -1.875 6.46875 -2 C 6.800781 -2.132812 7.113281 -2.335938 7.40625 -2.609375 L 8.6875 -1.21875 C 7.90625 -0.320312 6.757812 0.125 5.25 0.125 C 4.3125 0.125 3.476562 -0.0546875 2.75 -0.421875 C 2.03125 -0.785156 1.472656 -1.289062 1.078125 -1.9375 C 0.691406 -2.59375 0.5 -3.335938 0.5 -4.171875 C 0.5 -4.984375 0.691406 -5.71875 1.078125 -6.375 C 1.460938 -7.03125 1.992188 -7.539062 2.671875 -7.90625 C 3.347656 -8.269531 4.101562 -8.453125 4.9375 -8.453125 C 5.75 -8.453125 6.484375 -8.273438 7.140625 -7.921875 C 7.804688 -7.578125 8.328125 -7.078125 8.703125 -6.421875 C 9.085938 -5.765625 9.28125 -5.003906 9.28125 -4.140625 Z M 4.953125 -6.625 C 4.410156 -6.625 3.953125 -6.46875 3.578125 -6.15625 C 3.203125 -5.851562 2.972656 -5.429688 2.890625 -4.890625 L 7 -4.890625 C 6.914062 -5.421875 6.6875 -5.84375 6.3125 -6.15625 C 5.945312 -6.46875 5.492188 -6.625 4.953125 -6.625 Z M 4.953125 -6.625 "/></g></g></g><g fill="#000000" fill-opacity="1"><g transform="translate(242.609371, 252.477023)"><g><path d="M 6.484375 -0.40625 C 6.242188 -0.226562 5.953125 -0.09375 5.609375 0 C 5.265625 0.0820312 4.898438 0.125 4.515625 0.125 C 3.523438 0.125 2.757812 -0.125 2.21875 -0.625 C 1.675781 -1.132812 1.40625 -1.878906 1.40625 -2.859375 L 1.40625 -6.28125 L 0.125 -6.28125 L 0.125 -8.140625 L 1.40625 -8.140625 L 1.40625 -10.171875 L 3.828125 -10.171875 L 3.828125 -8.140625 L 5.90625 -8.140625 L 5.90625 -6.28125 L 3.828125 -6.28125 L 3.828125 -2.890625 C 3.828125 -2.546875 3.914062 -2.273438 4.09375 -2.078125 C 4.269531 -1.890625 4.523438 -1.796875 4.859375 -1.796875 C 5.242188 -1.796875 5.570312 -1.898438 5.84375 -2.109375 Z M 6.484375 -0.40625 "/></g></g></g><g fill="#000000" fill-opacity="1"><g transform="translate(249.347587, 252.477023)"><g><path d="M 11.78125 -8.453125 C 12.820312 -8.453125 13.648438 -8.144531 14.265625 -7.53125 C 14.878906 -6.914062 15.1875 -5.992188 15.1875 -4.765625 L 15.1875 0 L 12.78125 0 L 12.78125 -4.390625 C 12.78125 -5.054688 12.640625 -5.550781 12.359375 -5.875 C 12.085938 -6.195312 11.695312 -6.359375 11.1875 -6.359375 C 10.625 -6.359375 10.175781 -6.175781 9.84375 -5.8125 C 9.519531 -5.445312 9.359375 -4.90625 9.359375 -4.1875 L 9.359375 0 L 6.9375 0 L 6.9375 -4.390625 C 6.9375 -5.703125 6.410156 -6.359375 5.359375 -6.359375 C 4.796875 -6.359375 4.347656 -6.175781 4.015625 -5.8125 C 3.691406 -5.445312 3.53125 -4.90625 3.53125 -4.1875 L 3.53125 0 L 1.109375 0 L 1.109375 -8.328125 L 3.421875 -8.328125 L 3.421875 -7.375 C 3.734375 -7.71875 4.113281 -7.984375 4.5625 -8.171875 C 5.007812 -8.359375 5.5 -8.453125 6.03125 -8.453125 C 6.625 -8.453125 7.15625 -8.332031 7.625 -8.09375 C 8.101562 -7.863281 8.488281 -7.53125 8.78125 -7.09375 C 9.125 -7.519531 9.554688 -7.851562 10.078125 -8.09375 C 10.597656 -8.332031 11.164062 -8.453125 11.78125 -8.453125 Z M 11.78125 -8.453125 "/></g></g></g><g fill="#000000" fill-opacity="1"><g transform="translate(265.596767, 252.477023)"><g><path d="M 9.28125 -4.140625 C 9.28125 -4.109375 9.265625 -3.890625 9.234375 -3.484375 L 2.921875 -3.484375 C 3.035156 -2.960938 3.300781 -2.550781 3.71875 -2.25 C 4.144531 -1.957031 4.675781 -1.8125 5.3125 -1.8125 C 5.75 -1.8125 6.132812 -1.875 6.46875 -2 C 6.800781 -2.132812 7.113281 -2.335938 7.40625 -2.609375 L 8.6875 -1.21875 C 7.90625 -0.320312 6.757812 0.125 5.25 0.125 C 4.3125 0.125 3.476562 -0.0546875 2.75 -0.421875 C 2.03125 -0.785156 1.472656 -1.289062 1.078125 -1.9375 C 0.691406 -2.59375 0.5 -3.335938 0.5 -4.171875 C 0.5 -4.984375 0.691406 -5.71875 1.078125 -6.375 C 1.460938 -7.03125 1.992188 -7.539062 2.671875 -7.90625 C 3.347656 -8.269531 4.101562 -8.453125 4.9375 -8.453125 C 5.75 -8.453125 6.484375 -8.273438 7.140625 -7.921875 C 7.804688 -7.578125 8.328125 -7.078125 8.703125 -6.421875 C 9.085938 -5.765625 9.28125 -5.003906 9.28125 -4.140625 Z M 4.953125 -6.625 C 4.410156 -6.625 3.953125 -6.46875 3.578125 -6.15625 C 3.203125 -5.851562 2.972656 -5.429688 2.890625 -4.890625 L 7 -4.890625 C 6.914062 -5.421875 6.6875 -5.84375 6.3125 -6.15625 C 5.945312 -6.46875 5.492188 -6.625 4.953125 -6.625 Z M 4.953125 -6.625 "/></g></g></g><g fill="#000000" fill-opacity="1"><g transform="translate(275.371082, 252.477023)"><g><path d="M 6.171875 -8.453125 C 7.210938 -8.453125 8.046875 -8.140625 8.671875 -7.515625 C 9.304688 -6.898438 9.625 -5.984375 9.625 -4.765625 L 9.625 0 L 7.21875 0 L 7.21875 -4.390625 C 7.21875 -5.054688 7.070312 -5.550781 6.78125 -5.875 C 6.488281 -6.195312 6.070312 -6.359375 5.53125 -6.359375 C 4.914062 -6.359375 4.425781 -6.171875 4.0625 -5.796875 C 3.707031 -5.421875 3.53125 -4.863281 3.53125 -4.125 L 3.53125 0 L 1.109375 0 L 1.109375 -8.328125 L 3.421875 -8.328125 L 3.421875 -7.359375 C 3.742188 -7.703125 4.140625 -7.96875 4.609375 -8.15625 C 5.085938 -8.351562 5.609375 -8.453125 6.171875 -8.453125 Z M 6.171875 -8.453125 "/></g></g></g><g fill="#000000" fill-opacity="1"><g transform="translate(286.074796, 252.477023)"><g><path d="M 1.109375 -8.328125 L 3.53125 -8.328125 L 3.53125 0 L 1.109375 0 Z M 2.328125 -9.46875 C 1.941406 -9.46875 1.625 -9.59375 1.375 -9.84375 C 1.132812 -10.09375 1.015625 -10.410156 1.015625 -10.796875 C 1.015625 -11.160156 1.132812 -11.46875 1.375 -11.71875 C 1.625 -11.96875 1.941406 -12.09375 2.328125 -12.09375 C 2.703125 -12.09375 3.007812 -11.96875 3.25 -11.71875 C 3.5 -11.46875 3.625 -11.160156 3.625 -10.796875 C 3.625 -10.410156 3.5 -10.09375 3.25 -9.84375 C 3.007812 -9.59375 2.703125 -9.46875 2.328125 -9.46875 Z M 2.328125 -9.46875 "/></g></g></g><g fill="#000000" fill-opacity="1"><g transform="translate(290.737336, 252.477023)"><g><path d="M 6.171875 -8.453125 C 7.210938 -8.453125 8.046875 -8.140625 8.671875 -7.515625 C 9.304688 -6.898438 9.625 -5.984375 9.625 -4.765625 L 9.625 0 L 7.21875 0 L 7.21875 -4.390625 C 7.21875 -5.054688 7.070312 -5.550781 6.78125 -5.875 C 6.488281 -6.195312 6.070312 -6.359375 5.53125 -6.359375 C 4.914062 -6.359375 4.425781 -6.171875 4.0625 -5.796875 C 3.707031 -5.421875 3.53125 -4.863281 3.53125 -4.125 L 3.53125 0 L 1.109375 0 L 1.109375 -8.328125 L 3.421875 -8.328125 L 3.421875 -7.359375 C 3.742188 -7.703125 4.140625 -7.96875 4.609375 -8.15625 C 5.085938 -8.351562 5.609375 -8.453125 6.171875 -8.453125 Z M 6.171875 -8.453125 "/></g></g></g><g fill="#000000" fill-opacity="1"><g transform="translate(301.441021, 252.477023)"><g/></g></g><g fill="#000000" fill-opacity="1"><g transform="translate(305.824745, 252.477023)"><g><path d="M 4.46875 -8.453125 C 5.757812 -8.453125 6.75 -8.144531 7.4375 -7.53125 C 8.132812 -6.914062 8.484375 -5.988281 8.484375 -4.75 L 8.484375 0 L 6.21875 0 L 6.21875 -1.03125 C 5.769531 -0.257812 4.925781 0.125 3.6875 0.125 C 3.039062 0.125 2.484375 0.015625 2.015625 -0.203125 C 1.546875 -0.421875 1.1875 -0.71875 0.9375 -1.09375 C 0.695312 -1.476562 0.578125 -1.914062 0.578125 -2.40625 C 0.578125 -3.175781 0.867188 -3.78125 1.453125 -4.21875 C 2.035156 -4.664062 2.9375 -4.890625 4.15625 -4.890625 L 6.0625 -4.890625 C 6.0625 -5.421875 5.898438 -5.828125 5.578125 -6.109375 C 5.265625 -6.390625 4.789062 -6.53125 4.15625 -6.53125 C 3.707031 -6.53125 3.269531 -6.457031 2.84375 -6.3125 C 2.414062 -6.175781 2.050781 -5.992188 1.75 -5.765625 L 0.875 -7.453125 C 1.332031 -7.765625 1.878906 -8.007812 2.515625 -8.1875 C 3.148438 -8.363281 3.800781 -8.453125 4.46875 -8.453125 Z M 4.296875 -1.5 C 4.703125 -1.5 5.066406 -1.59375 5.390625 -1.78125 C 5.710938 -1.976562 5.9375 -2.257812 6.0625 -2.625 L 6.0625 -3.484375 L 4.40625 -3.484375 C 3.414062 -3.484375 2.921875 -3.160156 2.921875 -2.515625 C 2.921875 -2.203125 3.039062 -1.953125 3.28125 -1.765625 C 3.53125 -1.585938 3.867188 -1.5 4.296875 -1.5 Z M 4.296875 -1.5 "/></g></g></g><g fill="#000000" fill-opacity="1"><g transform="translate(315.382168, 252.477023)"><g><path d="M 9.59375 -11.484375 L 9.59375 0 L 7.296875 0 L 7.296875 -0.953125 C 6.691406 -0.234375 5.820312 0.125 4.6875 0.125 C 3.90625 0.125 3.195312 -0.046875 2.5625 -0.390625 C 1.925781 -0.742188 1.425781 -1.242188 1.0625 -1.890625 C 0.707031 -2.546875 0.53125 -3.304688 0.53125 -4.171875 C 0.53125 -5.023438 0.707031 -5.773438 1.0625 -6.421875 C 1.425781 -7.078125 1.925781 -7.578125 2.5625 -7.921875 C 3.195312 -8.273438 3.90625 -8.453125 4.6875 -8.453125 C 5.75 -8.453125 6.582031 -8.117188 7.1875 -7.453125 L 7.1875 -11.484375 Z M 5.109375 -1.859375 C 5.710938 -1.859375 6.21875 -2.066406 6.625 -2.484375 C 7.03125 -2.898438 7.234375 -3.460938 7.234375 -4.171875 C 7.234375 -4.867188 7.03125 -5.425781 6.625 -5.84375 C 6.21875 -6.257812 5.710938 -6.46875 5.109375 -6.46875 C 4.492188 -6.46875 3.984375 -6.257812 3.578125 -5.84375 C 3.171875 -5.425781 2.96875 -4.867188 2.96875 -4.171875 C 2.96875 -3.460938 3.171875 -2.898438 3.578125 -2.484375 C 3.984375 -2.066406 4.492188 -1.859375 5.109375 -1.859375 Z M 5.109375 -1.859375 "/></g></g></g><g fill="#000000" fill-opacity="1"><g transform="translate(326.101364, 252.477023)"><g><path d="M 3.421875 -7.234375 C 3.710938 -7.628906 4.101562 -7.929688 4.59375 -8.140625 C 5.082031 -8.347656 5.644531 -8.453125 6.28125 -8.453125 L 6.28125 -6.21875 C 6.019531 -6.238281 5.84375 -6.25 5.75 -6.25 C 5.050781 -6.25 4.503906 -6.054688 4.109375 -5.671875 C 3.722656 -5.285156 3.53125 -4.707031 3.53125 -3.9375 L 3.53125 0 L 1.109375 0 L 1.109375 -8.328125 L 3.421875 -8.328125 Z M 3.421875 -7.234375 "/></g></g></g><g fill="#000000" fill-opacity="1"><g transform="translate(332.77761, 252.477023)"><g><path d="M 9.28125 -4.140625 C 9.28125 -4.109375 9.265625 -3.890625 9.234375 -3.484375 L 2.921875 -3.484375 C 3.035156 -2.960938 3.300781 -2.550781 3.71875 -2.25 C 4.144531 -1.957031 4.675781 -1.8125 5.3125 -1.8125 C 5.75 -1.8125 6.132812 -1.875 6.46875 -2 C 6.800781 -2.132812 7.113281 -2.335938 7.40625 -2.609375 L 8.6875 -1.21875 C 7.90625 -0.320312 6.757812 0.125 5.25 0.125 C 4.3125 0.125 3.476562 -0.0546875 2.75 -0.421875 C 2.03125 -0.785156 1.472656 -1.289062 1.078125 -1.9375 C 0.691406 -2.59375 0.5 -3.335938 0.5 -4.171875 C 0.5 -4.984375 0.691406 -5.71875 1.078125 -6.375 C 1.460938 -7.03125 1.992188 -7.539062 2.671875 -7.90625 C 3.347656 -8.269531 4.101562 -8.453125 4.9375 -8.453125 C 5.75 -8.453125 6.484375 -8.273438 7.140625 -7.921875 C 7.804688 -7.578125 8.328125 -7.078125 8.703125 -6.421875 C 9.085938 -5.765625 9.28125 -5.003906 9.28125 -4.140625 Z M 4.953125 -6.625 C 4.410156 -6.625 3.953125 -6.46875 3.578125 -6.15625 C 3.203125 -5.851562 2.972656 -5.429688 2.890625 -4.890625 L 7 -4.890625 C 6.914062 -5.421875 6.6875 -5.84375 6.3125 -6.15625 C 5.945312 -6.46875 5.492188 -6.625 4.953125 -6.625 Z M 4.953125 -6.625 "/></g></g></g><g fill="#000000" fill-opacity="1"><g transform="translate(342.551894, 252.477023)"><g><path d="M 3.921875 0.125 C 3.222656 0.125 2.539062 0.0390625 1.875 -0.125 C 1.21875 -0.300781 0.695312 -0.519531 0.3125 -0.78125 L 1.109375 -2.515625 C 1.484375 -2.273438 1.929688 -2.078125 2.453125 -1.921875 C 2.984375 -1.773438 3.503906 -1.703125 4.015625 -1.703125 C 5.035156 -1.703125 5.546875 -1.957031 5.546875 -2.46875 C 5.546875 -2.695312 5.40625 -2.863281 5.125 -2.96875 C 4.84375 -3.070312 4.414062 -3.160156 3.84375 -3.234375 C 3.15625 -3.335938 2.585938 -3.457031 2.140625 -3.59375 C 1.703125 -3.726562 1.320312 -3.960938 1 -4.296875 C 0.675781 -4.640625 0.515625 -5.128906 0.515625 -5.765625 C 0.515625 -6.285156 0.664062 -6.75 0.96875 -7.15625 C 1.269531 -7.5625 1.710938 -7.878906 2.296875 -8.109375 C 2.878906 -8.335938 3.566406 -8.453125 4.359375 -8.453125 C 4.953125 -8.453125 5.539062 -8.382812 6.125 -8.25 C 6.707031 -8.125 7.191406 -7.953125 7.578125 -7.734375 L 6.765625 -6.015625 C 6.035156 -6.421875 5.234375 -6.625 4.359375 -6.625 C 3.847656 -6.625 3.460938 -6.550781 3.203125 -6.40625 C 2.941406 -6.257812 2.8125 -6.078125 2.8125 -5.859375 C 2.8125 -5.597656 2.953125 -5.414062 3.234375 -5.3125 C 3.515625 -5.207031 3.957031 -5.109375 4.5625 -5.015625 C 5.25 -4.898438 5.804688 -4.773438 6.234375 -4.640625 C 6.671875 -4.515625 7.046875 -4.28125 7.359375 -3.9375 C 7.679688 -3.601562 7.84375 -3.132812 7.84375 -2.53125 C 7.84375 -2.007812 7.6875 -1.546875 7.375 -1.140625 C 7.070312 -0.742188 6.625 -0.429688 6.03125 -0.203125 C 5.4375 0.015625 4.734375 0.125 3.921875 0.125 Z M 3.921875 0.125 "/></g></g></g><g fill="#000000" fill-opacity="1"><g transform="translate(350.777189, 252.477023)"><g><path d="M 1.109375 -8.328125 L 3.53125 -8.328125 L 3.53125 0 L 1.109375 0 Z M 2.328125 -9.46875 C 1.941406 -9.46875 1.625 -9.59375 1.375 -9.84375 C 1.132812 -10.09375 1.015625 -10.410156 1.015625 -10.796875 C 1.015625 -11.160156 1.132812 -11.46875 1.375 -11.71875 C 1.625 -11.96875 1.941406 -12.09375 2.328125 -12.09375 C 2.703125 -12.09375 3.007812 -11.96875 3.25 -11.71875 C 3.5 -11.46875 3.625 -11.160156 3.625 -10.796875 C 3.625 -10.410156 3.5 -10.09375 3.25 -9.84375 C 3.007812 -9.59375 2.703125 -9.46875 2.328125 -9.46875 Z M 2.328125 -9.46875 "/></g></g></g></svg>